<svg xmlns="http://www.w3.org/2000/svg" viewBox="0 0 428.09 427.96"><defs><style>.cls-1{fill:#f6f6f6;}</style></defs><g id="Слой_2" data-name="Слой 2"><g id="Слой_1-2" data-name="Слой 1"><path class="cls-1" d="M332.91,20a75.26,75.26,0,0,1,75.18,75.17V332.79A75.26,75.26,0,0,1,332.91,408H95.17A75.25,75.25,0,0,1,20,332.79V95.17A75.25,75.25,0,0,1,95.17,20H332.91m0-20H95.17A95.17,95.17,0,0,0,0,95.17V332.79A95.17,95.17,0,0,0,95.17,428H332.91a95.17,95.17,0,0,0,95.18-95.17V95.17A95.17,95.17,0,0,0,332.91,0Z"/><path class="cls-1" d="M84,316.16l1,16.34a24.93,24.93,0,0,0,2.13,6.26,26.44,26.44,0,0,0,7.41,8.81,40.74,40.74,0,0,0,16.51,8.08h14.46a41,41,0,0,0,41.54-39.49q.33-74,.68-148.08a8.72,8.72,0,0,1,1.7-5.82,8.89,8.89,0,0,1,6.47-3.37l112-22.13A6.85,6.85,0,0,1,294.2,138a6.53,6.53,0,0,1,2.09,4.55V243.91a11.4,11.4,0,0,1-2.38,6,11.56,11.56,0,0,1-6.47,4l-25.11,5c-4,.93-22.91,5.79-29.91,22a31.12,31.12,0,0,0-2.26,8.21v9.28A31.22,31.22,0,0,0,255.1,326h19.74c2.76-.16,17.09-1.25,27.75-13.36a40.19,40.19,0,0,0,9.78-24.6V74.38a8.71,8.71,0,0,0-4.13-8.3,8,8,0,0,0-5.14-.81L161.65,93.87a13,13,0,0,0-10,11q0,83.83-.08,167.66a13.14,13.14,0,0,1-8.26,10.64l-28.93,6.05c-3,.6-24,5.11-29.23,20.72A23,23,0,0,0,84,316.16Z"/></g></g></svg>