<svg xmlns="http://www.w3.org/2000/svg" viewBox="0 0 428.25 427.96"><defs><style>.cls-1{fill:#f6f6f6;}</style></defs><g id="Слой_2" data-name="Слой 2"><g id="Слой_1-2" data-name="Слой 1"><path class="cls-1" d="M99.86,25.39a155.31,155.31,0,0,1,10.46,48.77,20,20,0,0,0,20,19.07h.76a20,20,0,0,0,19.24-20.56,54.28,54.28,0,0,1,2.94-18.1C159.5,74.83,162,96.46,164,118.65A20,20,0,0,0,199,136.32,24,24,0,0,0,204.1,124c2.94-9.64,6-15.76,10.2-20.23,4.8,5.1,7.43,12.6,10.21,20.5.24.68.47,1.35.71,2a20,20,0,0,0,18.84,13.33,19.32,19.32,0,0,0,2.4-.14A20,20,0,0,0,264,121.66l0-.31c2.25-22.37,4.58-45.4,11.27-67A74.53,74.53,0,0,1,278.42,69a20,20,0,0,0,19.94,18.67h0a20,20,0,0,0,20-18.64c.91-13.35,4.39-27.93,10.34-43.41,3.46,7.32,5.4,16,7.52,25.57.54,2.4,1.09,4.89,1.68,7.38.08.36.15.72.22,1.08.22,1.11.5,2.49.94,4.08A25.41,25.41,0,0,0,341.84,70c.09.14.19.3.3.51a20,20,0,0,0,17.55,10.41,19.62,19.62,0,0,0,2.74-.19,20,20,0,0,0,10.81-5.09l.39,3c3.78,28.6,4.71,58.53,2.83,91.49-.86,15.09-1.93,29.86-4.81,43.86a20,20,0,0,0-29,14.55c-.51,3.2-1,6.37-1.49,9.52-2.68,17.23-5.21,33.54-10.63,48.33-1.21-3.58-2.25-7.51-3.36-11.67-.53-2-1.07-4.06-1.65-6.14-.12-.41-.22-.82-.33-1.22a45.14,45.14,0,0,0-4-10.72,20,20,0,0,0-17.58-10.49,19.57,19.57,0,0,0-4,.41,20,20,0,0,0-15.91,17.74l-.25,2.68c-2,21.54-3.9,42.15-8.37,61.89-.23-.92-.47-1.88-.72-2.92s-.57-2.3-.9-3.61a20,20,0,0,0-19.39-15.18l-1.06,0a20,20,0,0,0-18.76,17.19c-3.68,26.22-7.49,53.33-18.53,76.75-.51,1.07-1,2-1.54,2.92-3.1-4.77-5.28-11-7.89-19.13-6.61-20.53-9.69-41.62-11.82-59.55a20,20,0,0,0-18.18-17.56c-.57,0-1.13-.07-1.7-.07a20,20,0,0,0-19.17,14.34c-.73,2.48-1.41,4.91-2.07,7.28-2.28-10.28-3.72-20.87-5.12-31.25-1-7.4-1.73-15-2.5-23-.36-3.76-.73-7.65-1.15-11.65a20,20,0,0,0-17.76-17.82,19.3,19.3,0,0,0-2.14-.11,20,20,0,0,0-19,13.77c-1.61,4.92-2.83,9.56-4,14-1.24,4.7-2.43,9.21-3.89,13.22a153.15,153.15,0,0,1-5.52-20.34c-1.75-8.05-3.1-16.29-4.53-25-.65-3.94-1.32-8-2-12.13a20,20,0,0,0-17.2-16.4,19.34,19.34,0,0,0-2.51-.16,19.93,19.93,0,0,0-9,2.15c-.26-1.41-.5-2.84-.75-4.28-6.15-35.5-5.58-71.82-4-105.79a278.49,278.49,0,0,1,2.67-29.47,20,20,0,0,0,14.26,6h0A20,20,0,0,0,88.37,66.66C90,61,91.25,55.53,92.48,50.21c2.2-9.57,4.11-17.88,7.38-24.82M159.66,41h0m121.09.54h0m-122.48.16h0m-94.93,1h0m322.83,0h0m-169.8,59.09h0M334.74,0h-7.53c-7.18,1.49-12,5.78-14.81,12.45-7.62,18.3-12.8,37.21-14,55.2-.61-9.17-5-24.87-9.82-33.9-3.8-7.07-8.39-10.62-13.08-10.62-4.43,0-9,3.17-13,9.53a32.63,32.63,0,0,0-3,6.06c-9.94,26.6-12.73,54.52-15.4,80.93-3.78-10.7-7.66-23-17.8-32.09-3.92-3.49-8-5.26-12.08-5.26s-8.17,1.78-12.06,5.4c-9.65,9-14.3,20.52-17.85,32.83a4.59,4.59,0,0,1-.92,3.29c.3-1.1.6-2.19.92-3.29q0-.56-.09-1.08c-2.47-27.5-5.51-54.9-15.34-81a40.79,40.79,0,0,0-6.39-11c-2.58-3.21-5.42-4.81-8.38-4.81-2.55,0-5.18,1.19-7.81,3.55-2.42,2.18-4.91,4.37-6.27,7.42-5.63,12.65-10.1,25.59-9.7,39.65a175.71,175.71,0,0,0-13-58.07c-3-7.47-7.49-13.57-16.12-15.16H93.68C76.61,16.4,75.39,39.43,69.15,61.13c-2-7.09-3.48-13.11-5.48-19s-3.62-13.8-10.53-13.9H53c-6.91,0-8.57,8-10.59,13.71-7,20-9.26,40.89-10.21,61.71-1.66,36.76-2,73.62,4.31,110.11,1.95,11.24,4,22.6,9.93,32.63,2.09,3.51,4.35,5.27,6.62,5.27s4.39-1.66,6.41-5c2.61-4.32,4.28-9.21,6.51-14.17,2.27,13,4,25.58,6.73,38,3.06,14,6.65,28.06,15,40.14,2.83,4.08,6.14,6.11,9.59,6.11,3.05,0,6.2-1.59,9.21-4.73,3.89-4.05,6-9.08,8.21-14.09,4.48-10.13,6.23-21.14,9.92-32.39,1.29,12.41,2.18,23.87,3.72,35.24,2.6,19.21,5.3,38.47,12.54,56.61,2.41,6,4.5,14.2,12.42,14.2h0c8,0,10-8.39,12.31-14.4,3.56-9.37,5.87-19.21,8.9-29.46,2.6,21.86,6.08,42.93,12.65,63.31,3.8,11.8,7.8,23.7,17.38,32.5,3.23,3,6.39,4.44,9.55,4.44s6.36-1.49,9.65-4.43a42.64,42.64,0,0,0,10-13.9C246,383.87,250,356.12,254.06,327.14c.95,3.84,1.63,6.67,2.36,9.48,2.7,10.32,5.16,20.74,11,29.86,2.36,3.66,4.91,5.47,7.52,5.47s5.23-1.8,7.74-5.38a53.55,53.55,0,0,0,6.86-14.79c8.88-27.71,11.34-56.47,14.05-85.66a34.66,34.66,0,0,1,2.65,7.81c3.72,13.33,6.26,27.26,15.81,38.11,2.78,3.16,5.87,4.72,8.9,4.72,3.35,0,6.64-1.9,9.38-5.64a66.85,66.85,0,0,0,8.18-15.82c7.75-20.11,10.28-41.33,13.87-63.61,1.1,2.81,1.7,4.63,2.52,6.35,2.46,5.23,3.29,13.06,10.34,13.06h.08c7.5-.06,8.62-8,10.6-13.66,7.48-21.41,9.21-43.82,10.49-66.2,1.81-31.81,1.21-63.61-3-95.25-1.79-13.55-4-27.08-9.62-39.69-1.67-3.72-3.72-8.29-8.4-8.29h-.26c-4.34.15-6.3,4.48-8.05,8.08-3.71,7.67-5.4,16-7.44,24.85a17.48,17.48,0,0,1-1.4-2.62c-.4-1.43-.61-2.91-1-4.35-4.53-19.25-7.29-39.23-22.6-54Z"/><path class="cls-1" d="M428,128.63a115.08,115.08,0,0,1-4.57,40.11c-1.22,4.13-2.71,10.09-7.65,9.85-4.53-.22-6.24-5.69-7.37-10.16a158.2,158.2,0,0,1,.09-79.72c1.12-4.35,2.71-9.82,7.6-9.85,4.53,0,6.07,5.56,7.23,9.49A115,115,0,0,1,428,128.63Z"/><path class="cls-1" d="M24.77,127.14c-.1,13.79-.42,25.75-3.47,37.44a49.61,49.61,0,0,1-2.33,7c-1.37,3.19-2.9,7.23-6.72,7.11-3.3-.11-4.74-3.9-6.09-6.91C2.55,163.76,1.3,155,.76,146.49c-1.2-19.14-1.69-38.41,4.08-57.1C6.21,85,7.48,78.81,12.72,78.91c4.54.09,5.89,5.86,7.36,10.17C24.5,102.06,24.47,115.52,24.77,127.14Z"/></g></g></svg>