<svg xmlns="http://www.w3.org/2000/svg" viewBox="0 0 428.09 427.96"><defs><style>.cls-1{fill:#f6f6f6;}</style></defs><g id="Слой_2" data-name="Слой 2"><g id="Слой_1-2" data-name="Слой 1"><path class="cls-1" d="M332.91,20a75.26,75.26,0,0,1,75.18,75.17V332.79A75.26,75.26,0,0,1,332.91,408H95.17A75.25,75.25,0,0,1,20,332.79V95.17A75.25,75.25,0,0,1,95.17,20H332.91m0-20H95.17A95.17,95.17,0,0,0,0,95.17V332.79A95.17,95.17,0,0,0,95.17,428H332.91a95.17,95.17,0,0,0,95.18-95.17V95.17A95.17,95.17,0,0,0,332.91,0Z"/><path class="cls-1" d="M310.15,358.92a10,10,0,0,1-5.89-1.92l-86.41-63-86,63a10,10,0,0,1-15.42-11.14l32.83-101.8L60.71,179.52a10,10,0,0,1,5.89-18.09H175.9L208,62a10,10,0,0,1,9.5-6.93h0A10,10,0,0,1,227,62l32.47,99.48H368.38a10,10,0,0,1,5.91,18.07l-87.91,64.36,33.28,102a10,10,0,0,1-9.51,13.1ZM166.27,256.45l-21.34,66.18,55.95-41Zm68.52,25.18,56.26,41L269.4,256.29Zm-62-45.22,45.08,32.85,45.05-33L245,181.43H190.47Zm-75.44-55L155.72,224l13.73-42.58Zm168.7,0,13.85,42.43,57.95-42.43Zm-69.08-20h41.51l-20.88-64Z"/></g></g></svg>