<svg xmlns="http://www.w3.org/2000/svg" viewBox="0 0 427.96 427.96"><defs><style>.cls-1{fill:#f6f6f6;}</style></defs><g id="Слой_2" data-name="Слой 2"><g id="Слой_1-2" data-name="Слой 1"><path class="cls-1" d="M370.55,20A37.45,37.45,0,0,1,408,57.41V370.55A37.45,37.45,0,0,1,370.55,408H57.41A37.45,37.45,0,0,1,20,370.55V57.41A37.45,37.45,0,0,1,57.41,20H370.55m0-20H57.41A57.41,57.41,0,0,0,0,57.41V370.55A57.41,57.41,0,0,0,57.41,428H370.55A57.42,57.42,0,0,0,428,370.55V57.41A57.41,57.41,0,0,0,370.55,0Z"/><circle class="cls-1" cx="172.06" cy="278.32" r="49.53"/><polygon class="cls-1" points="221.6 83.28 221.6 172.64 313.04 216.56 313.04 131.79 221.6 83.28"/></g></g></svg>