<svg width="46" height="69" viewBox="0 0 46 69" fill="none" xmlns="http://www.w3.org/2000/svg">
<path d="M21.0001 24.6C26.5001 22.7 31.9001 20.7 37.4001 18.7C38.9001 18.1 40.0001 17.3 40.8001 16.6C46.6001 11.4 45.0001 2.1 44.8001 1C36.3001 3.9 27.8001 6.8 19.2001 9.6C15.6001 10.8 12.8001 14.4 12.9001 18.5C13.1001 29.4 13.0001 40.4 13.1001 51.3C13.1001 51.6 13.1001 52 13.1001 52.3C12.9001 52.3 12.9001 52.4 12.9001 52.4C12.6001 52.4 12.3001 52.4 12.0001 52.4C8.30006 52.4 5.20006 53.6 2.80006 56.5C-0.499937 60.5 0.800064 65.5 5.50006 67.4C6.30006 67.7 7.20006 67.9 8.10006 68.2C9.10006 68.2 10.1001 68.2 11.1001 68.2C11.2001 68.1 11.4001 68.1 11.5001 68C13.0001 67.4 14.6001 67.1 15.9001 66.3C18.5001 64.7 20.3001 62.5 20.2001 59.3C20.2001 48.1 20.1001 36.9 20.0001 25.8C20.2001 25.1 20.4001 24.8 21.0001 24.6Z" fill="url(#paint0_linear_172_4)" stroke="#83529C" stroke-miterlimit="10"/>
<defs>
<linearGradient id="paint0_linear_172_4" x1="1.81036" y1="30.3626" x2="45.3086" y2="37.8688" gradientUnits="userSpaceOnUse">
<stop stop-color="#83266F"/>
<stop offset="0.0898802" stop-color="#75286B"/>
<stop offset="0.2783" stop-color="#5E2C66"/>
<stop offset="0.4811" stop-color="#4E2F61"/>
<stop offset="0.7066" stop-color="#44305F"/>
<stop offset="1" stop-color="#41315E"/>
</linearGradient>
</defs>
</svg>
