<svg width="47" height="70" viewBox="0 0 47 70" fill="none" xmlns="http://www.w3.org/2000/svg">
<path d="M21.5001 25.2001C27.0001 23.3001 32.4001 21.3001 37.9001 19.3001C39.4001 18.7001 40.5001 17.9001 41.3001 17.2001C47.1001 12.0001 45.5001 2.7001 45.3001 1.6001C36.8001 4.5001 28.3001 7.4001 19.7001 10.2001C16.1001 11.4001 13.3001 15.0001 13.4001 19.1001C13.6001 30.0001 13.5001 41.0001 13.6001 51.9001C13.6001 52.2001 13.6001 52.6001 13.6001 52.9001C13.4001 52.9001 13.4001 53.0001 13.4001 53.0001C13.1001 53.0001 12.8001 53.0001 12.5001 53.0001C8.80006 53.0001 5.70006 54.2001 3.30006 57.1001C6.35386e-05 61.1001 1.30006 66.1001 6.00006 68.0001C6.80006 68.3001 7.70006 68.5001 8.60006 68.8001C9.60006 68.8001 10.6001 68.8001 11.6001 68.8001C11.7001 68.7001 11.9001 68.7001 12.0001 68.6001C13.5001 68.0001 15.1001 67.7001 16.4001 66.9001C19.0001 65.3001 20.8001 63.1001 20.7001 59.9001C20.7001 48.7001 20.6001 37.5001 20.5001 26.4001C20.6001 25.7001 20.8001 25.4001 21.5001 25.2001Z" fill="url(#paint0_linear_172_3)" stroke="#83529C" stroke-miterlimit="10"/>
<defs>
<linearGradient id="paint0_linear_172_3" x1="1.50006" y1="35.2438" x2="45.6412" y2="35.2438" gradientUnits="userSpaceOnUse">
<stop stop-color="#83266F"/>
<stop offset="0.3154" stop-color="#80266E"/>
<stop offset="0.5346" stop-color="#77286C"/>
<stop offset="0.7245" stop-color="#682B68"/>
<stop offset="0.8967" stop-color="#522E62"/>
<stop offset="1" stop-color="#41315E"/>
</linearGradient>
</defs>
</svg>
