<svg xmlns="http://www.w3.org/2000/svg" viewBox="0 0 428.09 427.96"><defs><style>.cls-1{fill:#f6f6f6;}</style></defs><g id="Слой_2" data-name="Слой 2"><g id="Слой_1-2" data-name="Слой 1"><path class="cls-1" d="M332.91,20a75.26,75.26,0,0,1,75.18,75.17V332.79A75.26,75.26,0,0,1,332.91,408H95.17A75.25,75.25,0,0,1,20,332.79V95.17A75.25,75.25,0,0,1,95.17,20H332.91m0-20H95.17A95.17,95.17,0,0,0,0,95.17V332.79A95.17,95.17,0,0,0,95.17,428H332.91a95.17,95.17,0,0,0,95.18-95.17V95.17A95.17,95.17,0,0,0,332.91,0Z"/><path class="cls-1" d="M181.83,281.39c-14.26-4.3-27.55-9.05-39.76-16.26-13.47-7.95-17.87-20.34-11.46-32,6.65-12,19.68-14.71,33.94-6.89q49.33,27,98.73.1c14.31-7.82,27.29-5.33,34.05,6.58s2.15,24.5-12.13,32.54a170.37,170.37,0,0,1-18.64,8.92c-6.31,2.62-12.88,4.62-20.42,7.27,13.34,13.44,26.05,26.2,38.71,39,11.55,11.69,12.79,24.84,3.33,34.47s-22.9,9-34.56-2.32C242.4,342,231.2,331.09,220.5,319.73c-4.77-5.06-7.75-5.58-12.77-.2-10.9,11.68-22.37,22.83-33.85,33.94-11,10.66-24.44,11.25-33.82,1.89s-8.52-22.74,2.18-33.7C155.13,308.46,168.11,295.34,181.83,281.39Z"/><path class="cls-1" d="M213.94,66a76.41,76.41,0,1,0,76.41,76.41A76.41,76.41,0,0,0,213.94,66Zm0,107.92a31.52,31.52,0,1,1,31.51-31.51A31.52,31.52,0,0,1,213.94,173.93Z"/></g></g></svg>