<svg xmlns="http://www.w3.org/2000/svg" viewBox="0 0 427.96 427.8"><defs><style>.cls-1{fill:#f6f6f6;}</style></defs><g id="Слой_2" data-name="Слой 2"><g id="Слой_1-2" data-name="Слой 1"><path class="cls-1" d="M181,116.82c56.19,2.46,110.17,9,160.13,34.27a116.78,116.78,0,0,1,10.65,6c10.47,6.74,13.57,17,8.21,26.6s-16,12.63-27.09,6.68a276.27,276.27,0,0,0-84-28.71c-51-8.82-101.75-8.83-152.1,4.45-13.23,3.49-23.15-.47-26.62-11-3.77-11.41,2.06-20.82,15.71-25.27C117.23,119.61,149.89,119.17,181,116.82Z"/><path class="cls-1" d="M176.84,188.05c49.28,1.39,96.63,10.56,140.38,34.46,4.76,2.6,9.77,4.88,13,9.4,4.55,6.32,4.25,12.79-.73,18.67-6.35,7.5-14.17,7.14-21.95,2.76-25.36-14.27-52.39-23.21-81-28.49-40.29-7.43-80-6.11-119.38,4.6-11.2,3.05-19,.84-23.27-9.56-3.75-9.06,2.86-17.76,15.36-21.24C124.62,191.57,150.64,189.11,176.84,188.05Z"/><path class="cls-1" d="M307,297.92c-.13,12.38-9.58,16.53-21.67,10-19.51-10.56-39.84-18.42-61.74-22.58-38.45-7.31-76.41-4-114.18,4.2-8.74,1.91-15-1.22-17.3-8.69-2.53-8.3,2.94-13.71,11.05-15.58,66.58-15.37,131.5-14.15,193,19.82C301.69,288.15,307.73,290.94,307,297.92Z"/><path class="cls-1" d="M213.94,0h-.17C96.43.05.12,96.13,0,213.27-.12,330.57,96.24,427.7,212.82,427.8h.2c118.25,0,214.91-96,214.94-213.5C428,96.13,332,.05,213.94,0ZM350.73,350.92A195,195,0,0,1,213,407.8h-.18a187.81,187.81,0,0,1-74.56-15.44,197.32,197.32,0,0,1-103-103.9,191.81,191.81,0,0,1,.12-150.09A196.16,196.16,0,0,1,138.74,35.26,191.38,191.38,0,0,1,213.45,20h.79A194.2,194.2,0,0,1,408,214.29a190,190,0,0,1-15.36,75.08A193.66,193.66,0,0,1,350.73,350.92Z"/></g></g></svg>