<svg xmlns="http://www.w3.org/2000/svg" viewBox="0 0 434.48 433.74"><defs><style>.cls-1{fill:#f6f6f6;}</style></defs><g id="Слой_2" data-name="Слой 2"><g id="Слой_1-2" data-name="Слой 1"><path class="cls-1" d="M434.42,204.09c0-.55,0-1.09,0-1.63q-.07-9.84-.26-19.85c0-1.85-.07-3.69-.11-5.54q-.16-7.87-.38-15.78l0-1.53c-.48-16.46-1.14-32.92-2-49.26-.14-14-3.57-49-31.85-77A107.94,107.94,0,0,0,346.07,4.74l-.71-.16-.73,0c-42-3.09-84.7-4.62-126.76-4.53-39.8.08-80.11,1.6-119.81,4.52C86.06,5.06,56,9.05,31.89,34.25a97.82,97.82,0,0,0-25.95,55l0,.4C3,123.47,1.13,157.79.38,191.77h0l-.1,5.87c0,.23,0,.47,0,.71,0,.51,0,1,0,1.55l0,1.71c0,.89,0,1.78,0,2.67,0,4.07-.1,8.13-.13,12.21,0,1.2,0,2.41,0,3.61,0,4,0,7.91,0,11.86,0,1.52,0,3,0,4.56,0,3.62,0,7.24.09,10.87,0,2.14.08,4.29.11,6.44,0,3,.1,6,.17,9,.07,3.18.16,6.35.25,9.53.06,2,.1,3.93.17,5.89q.24,7.56.56,15.11c0,.11,0,.22,0,.33Q2.06,309.56,3,325.34c-.09,13.08,2.6,45.4,28.27,72.34,20,21,44,27.92,56.49,30.16l.92.12c39.94,3.61,80.54,5.55,120.67,5.76,2.51,0,5,0,7.53,0h0c42.74,0,85.92-1.94,128.45-5.78l.21,0a93.61,93.61,0,0,0,42.49-15.26c39.76-26.73,43.24-75.11,43.53-84.94C433.77,286.74,434.72,245.13,434.42,204.09ZM91.14,406.62a82.38,82.38,0,0,1-44.28-23.75c-20.51-21.52-22.45-47.52-22.34-57.7v-.39l0-.4q-.48-7.77-.89-15.56l0-.54c-.24-4.75-.47-9.52-.67-14.28-.06-1.28-.1-2.57-.15-3.85q-.23-5.44-.41-10.9c-.06-1.84-.11-3.68-.17-5.52q-.13-4.58-.25-9.14c-.05-2.22-.1-4.43-.14-6.65q-.08-3.94-.14-7.91-.06-3.76-.09-7.54c0-2.28,0-4.57,0-6.85,0-2.79,0-5.58,0-8.37,0-1.92,0-3.84,0-5.75,0-3.1,0-6.19.05-9.29v-.58a334.66,334.66,0,0,0,80.73-18.38,334.7,334.7,0,0,0,96.51-54.54l.33-.28c13.75-12.06,42.58-32.57,81.15-34.3,30.07-1.34,53,9.18,69.79,16.87a199.36,199.36,0,0,1,62.23,44.87c.1,4,.21,8,.29,12.05,0,1.89.08,3.77.11,5.66q.17,9.59.25,19.14c0,.5,0,1,0,1.5.3,40.66-.64,81.88-2.79,122.5V327c-.21,7.65-2.85,46.87-34.06,67.85a72.3,72.3,0,0,1-32.76,11.72c-44.31,4-89.34,5.9-133.81,5.67C170.15,412,130.33,410.14,91.14,406.62ZM47.41,49.08C66.22,29.41,89.86,26.36,99.15,26l.33,0c39.24-2.88,79.09-4.39,118.43-4.46,41.35-.1,83.17,1.4,124.4,4.41a86.56,86.56,0,0,1,42.33,22.83c22.78,22.6,25.42,51,25.5,62.18v.49q.63,11.86,1.12,23.8A219.36,219.36,0,0,0,359,101.51c-17.69-8.12-44.41-20.41-79.71-18.81-45,2-78.24,25.53-94.18,39.47A312.79,312.79,0,0,1,95,173.08,313.12,313.12,0,0,1,21.9,190c.77-32.73,2.56-65.75,5.37-98.29A76.2,76.2,0,0,1,47.41,49.08Z"/><rect class="cls-1" x="64.82" y="226.54" width="39.22" height="63.26" rx="4.82"/><rect class="cls-1" x="131.88" y="226.54" width="39.22" height="63.26" rx="4.82"/><rect class="cls-1" x="197.63" y="201.65" width="39.22" height="112.17" rx="4.82"/><rect class="cls-1" x="263.84" y="154.84" width="39.22" height="207.48" rx="4.82"/><rect class="cls-1" x="329.2" y="201.65" width="39.22" height="112.17" rx="4.82"/></g></g></svg>