<svg xmlns="http://www.w3.org/2000/svg" viewBox="0 0 432.94 432.94"><defs><style>.cls-1{fill:#f6f6f6;}</style></defs><g id="Слой_2" data-name="Слой 2"><g id="Слой_1-2" data-name="Слой 1"><path class="cls-1" d="M318.65,77.92l-3.39,33.15a16.4,16.4,0,0,0,23.83,16.24l16-8.28-12.22,16a16.39,16.39,0,0,0,10.29,26.11l12.3,2.09-6.58,1.45a16.39,16.39,0,0,0-6.32,29.13l4.83,3.62a16.25,16.25,0,0,0-2.79-.24,16.4,16.4,0,0,0-14.45,24.14l5.47,10.2-.07-.07a16.4,16.4,0,0,0-28.73,12.77l4.39,33.47L310.42,245a16.39,16.39,0,0,0-30.66-1.23l-38.52,91.15,19.43-91.88a16.4,16.4,0,0,0-24-17.75L119.26,289.92l96.31-79.58a16.4,16.4,0,0,0-8.66-28.94l-97.06-10.68,91.43-7.46A16.4,16.4,0,0,0,208,132.64l-42.84-24.19,53.94,17.81A16.39,16.39,0,0,0,237,100.37L224.67,85.18l22.73,18.35A16.4,16.4,0,0,0,274,88.64L272.58,78.2l6.12,13a16.4,16.4,0,0,0,28,2.8l12-16.06M253.14,0h-6.53a.4.4,0,0,0-.4.45l11.88,90.27a.39.39,0,0,1-.39.45.4.4,0,0,1-.25-.09l-103-83.15a3.63,3.63,0,0,0-2.27-.8,3.76,3.76,0,0,0-1,.14L144.81,9.1a1.33,1.33,0,0,0-.67,2.12l80.41,99.23a.39.39,0,0,1-.3.64l-.13,0L65.34,58.62a3.39,3.39,0,0,0-1.13-.19,3.63,3.63,0,0,0-2.56,1.06l-2.3,2.31a3.61,3.61,0,0,0,.78,5.7l140,79.08a.39.39,0,0,1-.16.73L.36,163.59A.4.4,0,0,0,0,164v10.38a.39.39,0,0,0,.35.39L205.16,197.3a.4.4,0,0,1,.21.7L35.64,338.26a2.42,2.42,0,0,0-.33,3.39l5.89,7.2a2.41,2.41,0,0,0,1.87.89,2.45,2.45,0,0,0,1.17-.3L244.43,239.33a.49.49,0,0,1,.19-.05.4.4,0,0,1,.39.48l-40.75,192.7a.4.4,0,0,0,.39.48h12.28a.39.39,0,0,0,.37-.24L294.49,250a.4.4,0,0,1,.37-.24.38.38,0,0,1,.37.27l47.3,142.85a.41.41,0,0,0,.38.27.37.37,0,0,0,.2-.05l8.52-4.93a.4.4,0,0,0,.19-.4l-19.1-145.62a.4.4,0,0,1,.4-.45.39.39,0,0,1,.3.14L405.18,326a.37.37,0,0,0,.3.13.38.38,0,0,0,.25-.09l5.73-4.85a.4.4,0,0,0,.09-.49L354.29,213.8a.41.41,0,0,1,.35-.59.4.4,0,0,1,.15,0l77.61,30.29a.4.4,0,0,0,.15,0,.39.39,0,0,0,.39-.4v-8.87a.39.39,0,0,0-.16-.32L362.2,181a.39.39,0,0,1,.15-.7l66.88-14.71a.38.38,0,0,0,.31-.41l-.44-7.07a.39.39,0,0,0-.33-.36l-72.89-12.39a.4.4,0,0,1-.25-.63l42.83-56.15a.4.4,0,0,0,0-.53l-6.29-5.84a.39.39,0,0,0-.27-.11.41.41,0,0,0-.18.05l-59.92,30.91a.4.4,0,0,1-.57-.39l8.1-79.17a.39.39,0,0,0-.16-.36l-4.32-3a.48.48,0,0,0-.23-.07.42.42,0,0,0-.32.16l-40.4,54.19a.39.39,0,0,1-.32.16.4.4,0,0,1-.36-.23L253.5.23a.39.39,0,0,0-.36-.23Z"/></g></g></svg>