<svg xmlns="http://www.w3.org/2000/svg" viewBox="0 0 424.01 423.8"><defs><style>.cls-1{fill:#f6f6f6;}</style></defs><g id="Слой_2" data-name="Слой 2"><g id="Слой_1-2" data-name="Слой 1"><path class="cls-1" d="M416.41,127.55C403.43,67.71,369.22,27.39,309,10.72,277.24,1.92,244.81,0,207.55,0c-27.15-.14-58.66,1.64-89.5,9.82C69.49,22.7,34.23,50.83,16.16,98.67c-9.42,24.94-13.61,50.91-15,77.41C-.91,216.36-1,256.58,7.6,296.27,20.59,356.1,54.79,396.45,115,413.08c29,8,58.6,10.37,88.5,10.67C238,424.1,272.34,422.9,306,414c48.57-12.88,83.83-41,101.89-88.85,9.42-24.94,13.61-50.91,15-77.4C424.92,207.45,425,167.24,416.41,127.55Zm-390,161c-5-22.81-6.72-45.81-6.88-68.9,24.73.93,79.67,8.33,125.25,52.25C194,319.3,201.34,378.42,202,404.3c-26.37-.37-52.47-2.58-78.07-9.66C69.27,379.54,38.22,342.89,26.42,288.54ZM297.31,395.47c-24.76,6.56-50,8.52-75.31,8.86-.68-28.45-8.66-94.15-63.34-146.84-25.38-24.46-56-41.54-90.93-50.77a215.58,215.58,0,0,0-48-7.1q.29-10.12.82-20.26C21.67,158.51,24.68,138,31,118.16c31.67.22,119.66,7.68,191.77,77.77,72.41,70.38,83.29,158.11,84.28,196.64Q302.29,394.13,297.31,395.47Zm106.11-151c-1.25,24.07-5.05,47.66-13.6,70.32-12.49,33.07-34,55.77-63,69.88-2.32-44.36-16.88-131.95-90-203.06-36.21-35.2-79.87-59.78-129.77-73.06A305.67,305.67,0,0,0,38.75,98.3c17.42-37,47.63-59.26,88-69.95,28-7.43,56.61-9,81.26-8.92,33.83,0,63.27,1.73,92.13,9.73,54.65,15.14,85.71,51.76,97.5,106.12C405.41,171.33,405.32,207.86,403.42,244.45Z"/></g></g></svg>