<svg xmlns="http://www.w3.org/2000/svg" viewBox="0 0 46.62 46.62"><defs><style>.cls-1{fill:#fff;}.cls-2{opacity:0.6;}</style></defs><g id="Слой_2" data-name="Слой 2"><g id="Слой_1-2" data-name="Слой 1"><rect class="cls-1" x="10.59" y="29" width="4.64" height="1.41"/><rect class="cls-1" x="10.59" y="27.18" width="4.64" height="1.41"/><rect class="cls-1" x="10.59" y="25.35" width="4.64" height="1.41"/><rect class="cls-1" x="10.59" y="23.52" width="4.64" height="1.41"/><rect class="cls-1" x="10.59" y="21.7" width="4.64" height="1.41"/><rect class="cls-1" x="15.79" y="29" width="4.64" height="1.41"/><rect class="cls-1" x="15.79" y="27.18" width="4.64" height="1.41"/><rect class="cls-1" x="15.79" y="25.35" width="4.64" height="1.41"/><rect class="cls-1" x="20.99" y="29" width="4.64" height="1.41"/><rect class="cls-1" x="20.99" y="27.18" width="4.64" height="1.41"/><rect class="cls-1" x="20.99" y="25.35" width="4.64" height="1.41"/><rect class="cls-1" x="20.99" y="23.52" width="4.64" height="1.41"/><rect class="cls-1" x="20.99" y="21.7" width="4.64" height="1.41"/><rect class="cls-1" x="20.99" y="19.87" width="4.64" height="1.41"/><rect class="cls-1" x="20.99" y="18.04" width="4.64" height="1.41"/><rect class="cls-1" x="26.19" y="29" width="4.64" height="1.41"/><rect class="cls-1" x="26.19" y="27.18" width="4.64" height="1.41"/><rect class="cls-1" x="26.19" y="25.35" width="4.64" height="1.41"/><rect class="cls-1" x="26.19" y="23.52" width="4.64" height="1.41"/><rect class="cls-1" x="26.19" y="21.7" width="4.64" height="1.41"/><rect class="cls-1" x="31.39" y="29" width="4.64" height="1.41"/><rect class="cls-1" x="31.39" y="27.18" width="4.64" height="1.41"/><rect class="cls-1" x="31.39" y="25.35" width="4.64" height="1.41"/><rect class="cls-1" x="31.39" y="23.52" width="4.64" height="1.41"/><rect class="cls-1" x="31.39" y="21.7" width="4.64" height="1.41"/><rect class="cls-1" x="31.39" y="19.87" width="4.64" height="1.41"/><rect class="cls-1" x="31.39" y="18.04" width="4.64" height="1.41"/><rect class="cls-1" x="31.39" y="16.21" width="4.64" height="1.41"/><path class="cls-1" d="M23.31,43A19.73,19.73,0,1,1,43,23.31,19.75,19.75,0,0,1,23.31,43Zm0-37.89A18.16,18.16,0,1,0,41.47,23.31,18.19,18.19,0,0,0,23.31,5.15Z"/><g class="cls-2"><path class="cls-1" d="M23.31,46.62A23.33,23.33,0,0,1,0,23.31a.79.79,0,0,1,1.57,0A21.74,21.74,0,1,0,23.31,1.57a.79.79,0,0,1,0-1.57,23.31,23.31,0,0,1,0,46.62Z"/></g></g></g></svg>