<svg xmlns="http://www.w3.org/2000/svg" viewBox="0 0 46.62 46.62"><defs><style>.cls-1{fill:#fff;}.cls-2{opacity:0.6;}</style></defs><g id="Слой_2" data-name="Слой 2"><g id="Слой_1-2" data-name="Слой 1"><path class="cls-1" d="M23.31,43A19.73,19.73,0,1,1,43,23.31,19.75,19.75,0,0,1,23.31,43Zm0-37.89A18.16,18.16,0,1,0,41.47,23.31,18.19,18.19,0,0,0,23.31,5.15Z"/><path class="cls-1" d="M23.31,34.57a.79.79,0,0,1-.46-.15L22.32,34c-4.57-3.31-11.47-8.32-11.47-14.34,0-4.71,2.83-7.63,7.39-7.63a6.13,6.13,0,0,1,5.07,2.34,6.13,6.13,0,0,1,5.07-2.34c4.56,0,7.4,2.92,7.4,7.63,0,6-6.91,11-11.47,14.34l-.54.39A.77.77,0,0,1,23.31,34.57ZM18.24,13.63c-3.64,0-5.82,2.26-5.82,6.06,0,5.22,6.51,9.94,10.82,13.07l.07.05.07-.05c4.31-3.13,10.82-7.85,10.82-13.07,0-3.8-2.17-6.06-5.82-6.06-2.37,0-3.38,1.08-4.44,2.5a.81.81,0,0,1-1.26,0C21.62,14.71,20.62,13.63,18.24,13.63Z"/><g class="cls-2"><path class="cls-1" d="M23.31,46.62A23.33,23.33,0,0,1,0,23.31a.79.79,0,0,1,1.57,0A21.74,21.74,0,1,0,23.31,1.57a.79.79,0,0,1,0-1.57,23.31,23.31,0,0,1,0,46.62Z"/></g></g></g></svg>