<svg xmlns="http://www.w3.org/2000/svg" viewBox="0 0 46.62 46.62"><defs><style>.cls-1{fill:#fff;}.cls-2{opacity:0.6;}</style></defs><g id="Слой_2" data-name="Слой 2"><g id="Слой_1-2" data-name="Слой 1"><path class="cls-1" d="M34.05,13.3a.77.77,0,0,0-.61-.2L19.3,14.67a.79.79,0,0,0-.7.78V27.89a4.55,4.55,0,0,0-2.36-.65c-2.17,0-3.93,1.41-3.93,3.14s1.76,3.15,3.93,3.15,3.93-1.41,3.93-3.15V20.87l12.57-1.39v6.83a4.64,4.64,0,0,0-2.36-.64c-2.16,0-3.92,1.41-3.92,3.14S28.22,32,30.38,32s3.93-1.41,3.93-3.15V13.88a.77.77,0,0,0-.26-.58M16.24,32c-1.28,0-2.36-.72-2.36-1.58s1.08-1.57,2.36-1.57,2.36.72,2.36,1.57S17.52,32,16.24,32m3.93-12.67V16.16l12.57-1.4v3.13ZM30.38,30.38c-1.27,0-2.35-.72-2.35-1.57s1.08-1.57,2.35-1.57,2.36.72,2.36,1.57-1.08,1.57-2.36,1.57"/><path class="cls-1" d="M23.31,43A19.73,19.73,0,1,1,43,23.31,19.75,19.75,0,0,1,23.31,43Zm0-37.89A18.16,18.16,0,1,0,41.47,23.31,18.19,18.19,0,0,0,23.31,5.15Z"/><g class="cls-2"><path class="cls-1" d="M23.31,46.62A23.33,23.33,0,0,1,0,23.31a.79.79,0,0,1,1.57,0A21.74,21.74,0,1,0,23.31,1.57a.79.79,0,0,1,0-1.57,23.31,23.31,0,0,1,0,46.62Z"/></g></g></g></svg>