<svg xmlns="http://www.w3.org/2000/svg" viewBox="0 0 46.62 46.62"><defs><style>.cls-1{fill:#fff;}.cls-2{opacity:0.6;}</style></defs><g id="Слой_2" data-name="Слой 2"><g id="Слой_1-2" data-name="Слой 1"><path class="cls-1" d="M23.31,43A19.73,19.73,0,1,1,43,23.31,19.75,19.75,0,0,1,23.31,43Zm0-37.89A18.16,18.16,0,1,0,41.47,23.31,18.19,18.19,0,0,0,23.31,5.15Z"/><path class="cls-1" d="M23.31,28.59a5.28,5.28,0,1,1,5.28-5.28A5.28,5.28,0,0,1,23.31,28.59Zm0-9A3.71,3.71,0,1,0,27,23.31,3.7,3.7,0,0,0,23.31,19.61Z"/><path class="cls-1" d="M29,29.81a.78.78,0,0,1-.56-.23.8.8,0,0,1,0-1.11,7.3,7.3,0,0,0,0-10.32.8.8,0,0,1,0-1.11.78.78,0,0,1,1.11,0,8.87,8.87,0,0,1,0,12.54A.74.74,0,0,1,29,29.81Z"/><path class="cls-1" d="M17.6,29.81a.75.75,0,0,1-.56-.23A8.87,8.87,0,0,1,17,17a.78.78,0,0,1,1.11,1.11,7.32,7.32,0,0,0,0,10.32.78.78,0,0,1,0,1.11A.74.74,0,0,1,17.6,29.81Z"/><path class="cls-1" d="M31.57,32.36a.82.82,0,0,1-.56-.23A.81.81,0,0,1,31,31a10.89,10.89,0,0,0,0-15.4.8.8,0,0,1,0-1.11.78.78,0,0,1,1.11,0,12.45,12.45,0,0,1,0,17.63A.78.78,0,0,1,31.57,32.36Z"/><path class="cls-1" d="M15.06,32.36a.79.79,0,0,1-.56-.23,12.47,12.47,0,0,1,0-17.63.78.78,0,0,1,1.11,1.11,10.89,10.89,0,0,0,0,15.4.79.79,0,0,1,0,1.12A.78.78,0,0,1,15.06,32.36Z"/><g class="cls-2"><path class="cls-1" d="M23.31,46.62A23.33,23.33,0,0,1,0,23.31a.79.79,0,0,1,1.57,0A21.74,21.74,0,1,0,23.31,1.57a.79.79,0,0,1,0-1.57,23.31,23.31,0,0,1,0,46.62Z"/></g></g></g></svg>