<svg xmlns="http://www.w3.org/2000/svg" viewBox="0 0 46.62 46.62"><defs><style>.cls-1{fill:#fff;}.cls-2{opacity:0.6;}</style></defs><g id="Слой_2" data-name="Слой 2"><g id="Слой_1-2" data-name="Слой 1"><path class="cls-1" d="M27.24,30.65H13.1a2.29,2.29,0,0,1-2.36-2.36V18.34A2.29,2.29,0,0,1,13.1,16H27.24a2.29,2.29,0,0,1,2.36,2.36v10A2.29,2.29,0,0,1,27.24,30.65ZM13.1,17.55a.73.73,0,0,0-.79.79v10a.72.72,0,0,0,.79.78H27.24a.72.72,0,0,0,.79-.78V18.34a.73.73,0,0,0-.79-.79Z"/><path class="cls-1" d="M35.1,29.07a.79.79,0,0,1-.42-.12L28.4,25a.79.79,0,0,1,.83-1.34l5.08,3.18V19.75l-5.08,3.18a.78.78,0,0,1-.83-1.33l6.28-3.93a.79.79,0,0,1,.8,0,.78.78,0,0,1,.4.69v10a.79.79,0,0,1-.4.69A.85.85,0,0,1,35.1,29.07Z"/><path class="cls-1" d="M28.81,27.5H11.53a.79.79,0,1,1,0-1.57H28.81a.79.79,0,1,1,0,1.57Z"/><path class="cls-1" d="M23.31,43A19.73,19.73,0,1,1,43,23.31,19.75,19.75,0,0,1,23.31,43Zm0-37.89A18.16,18.16,0,1,0,41.47,23.31,18.19,18.19,0,0,0,23.31,5.15Z"/><g class="cls-2"><path class="cls-1" d="M23.31,46.62A23.33,23.33,0,0,1,0,23.31a.79.79,0,0,1,1.57,0A21.74,21.74,0,1,0,23.31,1.57a.79.79,0,0,1,0-1.57,23.31,23.31,0,0,1,0,46.62Z"/></g></g></g></svg>