<svg xmlns="http://www.w3.org/2000/svg" viewBox="0 0 46.62 46.62"><defs><style>.cls-1{opacity:0.6;}.cls-2{fill:#fff;}</style></defs><g id="Слой_2" data-name="Слой 2"><g id="Слой_1-2" data-name="Слой 1"><g class="cls-1"><path class="cls-2" d="M23.31,46.62A23.33,23.33,0,0,1,0,23.31a.79.79,0,0,1,1.57,0A21.74,21.74,0,1,0,23.31,1.57a.79.79,0,0,1,0-1.57,23.31,23.31,0,0,1,0,46.62Z"/></g><path class="cls-2" d="M23.31,43A19.73,19.73,0,1,1,43,23.31,19.75,19.75,0,0,1,23.31,43Zm0-37.89A18.16,18.16,0,1,0,41.47,23.31,18.19,18.19,0,0,0,23.31,5.15Z"/><path class="cls-2" d="M29,29.23a.91.91,0,0,1-1.23.32A13.14,13.14,0,0,0,20.85,28a17.78,17.78,0,0,0-3.61.47.9.9,0,1,1-.47-1.73,19.27,19.27,0,0,1,4-.53,17.64,17.64,0,0,1,3.83.27A12.9,12.9,0,0,1,28.69,28,.9.9,0,0,1,29,29.23Zm1.66-3.46a1.07,1.07,0,0,1-.92.52,1,1,0,0,1-.53-.14A15.62,15.62,0,0,0,21,24.32a20.08,20.08,0,0,0-4.26.57,1.06,1.06,0,1,1-.56-2.05,22.13,22.13,0,0,1,4.7-.64,20.79,20.79,0,0,1,4.53.33,15.24,15.24,0,0,1,4.89,1.78A1.06,1.06,0,0,1,30.68,25.77Zm1-3.15a1.31,1.31,0,0,1-.66-.18c-6.63-3.87-15.23-1.57-15.32-1.55A1.3,1.3,0,0,1,15,18.38a27.78,27.78,0,0,1,5.77-.78,25.79,25.79,0,0,1,5.56.4,18.76,18.76,0,0,1,6,2.19,1.3,1.3,0,0,1-.65,2.43Z"/><path class="cls-2" d="M23.31,37.2A13.89,13.89,0,1,1,37.2,23.31,13.9,13.9,0,0,1,23.31,37.2Zm0-26.21A12.32,12.32,0,1,0,35.63,23.31,12.34,12.34,0,0,0,23.31,11Z"/></g></g></svg>