<svg xmlns="http://www.w3.org/2000/svg" viewBox="0 0 381.67 555.82"><defs><style>.cls-1{fill:#f8f8f8;}.cls-2{fill:#82cacb;}.cls-3{fill:#cf2e4e;}</style></defs><g id="Слой_2" data-name="Слой 2"><g id="Слой_1-2" data-name="Слой 1"><path class="cls-1" d="M.06,555Q.06,281.05,0,7.16C0,1.92.27,0,3.34,0q187.49.3,375,0c3.07,0,3.34,1.92,3.34,7.16Q381.57,281,381.61,555c-1.31,1.39-2.72.7-4.07.7q-186.71.06-373.41,0C2.77,555.65,1.36,556.34.06,555Z"/><path class="cls-2" d="M311,219.5V331.32a3.5,3.5,0,0,1-7,0V225.92l-47.16,30.4,39,15.85a3.5,3.5,0,0,1-2.64,6.48L248,260.27a3.5,3.5,0,0,1-.58-6.18l58.22-37.54A3.5,3.5,0,0,1,311,219.5Z"/><path class="cls-2" d="M311,129.2v70.51a3.51,3.51,0,0,1-1.57,2.92L251.24,241.1a3.5,3.5,0,1,1-3.86-5.84L304,197.83V129.2a3.5,3.5,0,0,1,7,0Z"/><path class="cls-2" d="M296.85,135.15A3.51,3.51,0,0,1,295.4,138l-39.34,28.27,38.85,19.37a3.49,3.49,0,0,1,.35,6.06l-44,28.73a3.5,3.5,0,0,1-3.82-5.87l38.92-25.38L247.75,170a3.5,3.5,0,0,1-.48-6l44-31.66a3.5,3.5,0,0,1,4.88.8A3.45,3.45,0,0,1,296.85,135.15Z"/><path class="cls-2" d="M311,105.13a3.49,3.49,0,0,1-1.43,2.83l-58.21,42.55a3.5,3.5,0,0,1-5.57-2.82V118.88L197,158.65a3.5,3.5,0,1,1-4.42-5.42L247.1,108.8a3.5,3.5,0,0,1,5.71,2.72v29.27l52.65-38.48a3.49,3.49,0,0,1,5.56,2.82Z"/><path class="cls-2" d="M261.39,44.75V77.2L214.9,112.34a3.5,3.5,0,0,0,4.22,5.59L261.39,86v29.15a3.5,3.5,0,0,0,7,0V80.68l19.71-14.9a3.5,3.5,0,1,0-4.22-5.58L268.39,71.91V44.75a3.5,3.5,0,0,0-7,0Z"/><path class="cls-3" d="M231.57,336.33V224.5a3.5,3.5,0,0,1,7,0V329.9l47.16-30.4-39-15.85a3.5,3.5,0,1,1,2.63-6.48l45.2,18.38a3.5,3.5,0,0,1,.57,6.18L237,339.27a3.51,3.51,0,0,1-5.4-2.94Z"/><path class="cls-3" d="M231.57,426.62V356.11a3.51,3.51,0,0,1,1.57-2.92l58.22-38.47a3.5,3.5,0,1,1,3.86,5.84L238.57,358v68.63a3.5,3.5,0,0,1-7,0Z"/><path class="cls-3" d="M245.74,420.67a3.52,3.52,0,0,1,1.46-2.85l39.33-28.27-38.85-19.37a3.5,3.5,0,0,1-.35-6.06l44-28.73a3.5,3.5,0,1,1,3.83,5.87l-38.93,25.38,38.58,19.23a3.5,3.5,0,0,1,.48,6l-44,31.66a3.51,3.51,0,0,1-5.55-2.84Z"/><path class="cls-3" d="M231.57,450.69a3.5,3.5,0,0,1,1.44-2.83l58.21-42.55a3.5,3.5,0,0,1,5.57,2.82v28.81l48.8-39.77a3.5,3.5,0,0,1,4.42,5.42L295.5,447a3.5,3.5,0,0,1-5.71-2.72V415l-52.65,38.48a3.5,3.5,0,0,1-4.89-.76A3.44,3.44,0,0,1,231.57,450.69Z"/><path class="cls-3" d="M281.21,511.07V478.62l46.49-35.14a3.5,3.5,0,1,0-4.23-5.58l-42.26,31.94V440.69a3.5,3.5,0,0,0-7,0v34.45L254.5,490a3.5,3.5,0,0,0,4.22,5.58l15.49-11.71v27.16a3.5,3.5,0,0,0,7,0Z"/><path class="cls-3" d="M102.36,232v3.39a1.71,1.71,0,0,1-1.7,1.71H90.74a2,2,0,0,1-2-2v-10H90v5.19h10.7A1.71,1.71,0,0,1,102.36,232Zm-1.2,0a.51.51,0,0,0-.5-.5H90v3.61a.78.78,0,0,0,.78.78h9.92a.5.5,0,0,0,.5-.5Z"/><path class="cls-3" d="M118.57,233.12v1.06a2.92,2.92,0,0,1-2.95,2.87h-8.08a2.91,2.91,0,0,1-3-2.87v-1.06a2.91,2.91,0,0,1,3-2.87h8.08A2.92,2.92,0,0,1,118.57,233.12Zm-11-1.66a1.7,1.7,0,0,0-1.72,1.66v1.06a1.71,1.71,0,0,0,1.72,1.67h8.08a1.7,1.7,0,0,0,1.71-1.67v-1.06a1.69,1.69,0,0,0-1.71-1.66Z"/><path class="cls-3" d="M133,237.05a3.32,3.32,0,0,0-.34-.68,2,2,0,0,1-1.49.68h-8.81a1.72,1.72,0,0,1-1.71-1.71V232a1.72,1.72,0,0,1,1.71-1.71h9.57v-2.68a1.3,1.3,0,0,0-1.3-1.3H127a3,3,0,0,0-2.85,2H122.9a4.25,4.25,0,0,1,4.12-3.2h3.62a2.51,2.51,0,0,1,2.5,2.51v7.5s-.54-.5,0,0a4.16,4.16,0,0,1,1.13,2Zm-1.07-5.6h-9.57a.5.5,0,0,0-.5.5v3.39a.5.5,0,0,0,.5.5h8.79a.78.78,0,0,0,.78-.78Z"/><path class="cls-3" d="M148.77,230.22v1.21H138.32a1.8,1.8,0,0,0-1.79,1.81V237h-1.18v-6.81h1.18v.61a2.92,2.92,0,0,1,1.78-.61h10.46Z"/><path class="cls-3" d="M163.59,233.36v1.7a2,2,0,0,1-2,2h-9.91a1.71,1.71,0,0,1-1.71-1.71V232a1.71,1.71,0,0,1,1.71-1.71h10.69v-5.19h1.21Zm-1.21-1.91H151.69a.5.5,0,0,0-.51.5v3.39a.5.5,0,0,0,.51.5h9.91a.78.78,0,0,0,.78-.78Z"/><path class="cls-3" d="M105.32,255.88A16.09,16.09,0,1,0,121.4,272,16.09,16.09,0,0,0,105.32,255.88Zm6.93,17.26v.58a1.72,1.72,0,0,1-1.74,1.67h-5.83v-1.21h5.83a.51.51,0,0,0,.52-.5v-.53a.51.51,0,0,0-.52-.51H100.12a1.72,1.72,0,0,1-1.74-1.7v-.68a1.73,1.73,0,0,1,1.74-1.71h11.4v1.21h-11.4a.5.5,0,0,0-.51.5v.68a.51.51,0,0,0,.51.5h10.39a1.72,1.72,0,0,1,1.74,1.69Z"/><path class="cls-3" d="M147,255.88A16.09,16.09,0,1,0,163.11,272,16.09,16.09,0,0,0,147,255.88Zm6.8,20.67V278h-1.2v-1.42a4,4,0,0,0-4-4h-6.47a.71.71,0,0,0-.7.68V278h-1.2V266h1.2v5.47a1.86,1.86,0,0,1,.7-.14h6.47a5.25,5.25,0,0,1,5.24,5.25Z"/><path class="cls-3" d="M105.32,298.6a16.09,16.09,0,1,0,16.08,16.08A16.08,16.08,0,0,0,105.32,298.6Zm7,16.61a2.92,2.92,0,0,1-3,2.87h-8.08a2.91,2.91,0,0,1-3-2.87v-1.06a2.91,2.91,0,0,1,3-2.86h8.08a2.91,2.91,0,0,1,3,2.86Z"/><path class="cls-3" d="M109.36,312.49h-8.08a1.7,1.7,0,0,0-1.72,1.66v1.06a1.71,1.71,0,0,0,1.72,1.67h8.08a1.7,1.7,0,0,0,1.71-1.67v-1.06A1.69,1.69,0,0,0,109.36,312.49Z"/><path class="cls-3" d="M147,298.6a16.09,16.09,0,1,0,16.08,16.08A16.08,16.08,0,0,0,147,298.6ZM154,313a1.67,1.67,0,0,1-1.74,1.6h-10.9v4.69h-1.23V310.1h12.13a1.68,1.68,0,0,1,1.74,1.6Z"/><path class="cls-3" d="M152.22,311.23h-10.9v2.21h10.9a.49.49,0,0,0,.51-.47V311.7A.49.49,0,0,0,152.22,311.23Z"/></g></g></svg>