<svg xmlns="http://www.w3.org/2000/svg" xmlns:xlink="http://www.w3.org/1999/xlink" viewBox="0 0 381.67 555.82"><defs><style>.cls-1{fill:url(#Безымянный_градиент_8);}.cls-2{fill:#fff;}</style><linearGradient id="Безымянный_градиент_8" x1="18.51" y1="157.05" x2="330.72" y2="376.58" gradientUnits="userSpaceOnUse"><stop offset="0" stop-color="#7fc9ca"/><stop offset="0.21" stop-color="#68c0bf"/><stop offset="0.52" stop-color="#4cb5b1"/><stop offset="0.8" stop-color="#3baea9"/><stop offset="1" stop-color="#35aca6"/></linearGradient></defs><g id="Слой_2" data-name="Слой 2"><g id="Слой_1-2" data-name="Слой 1"><path class="cls-1" d="M.06,555Q.06,281.05,0,7.16C0,1.92.27,0,3.34,0q187.49.3,375,0c3.07,0,3.34,1.92,3.34,7.16Q381.57,281,381.61,555c-1.31,1.39-2.72.7-4.07.7q-186.71.06-373.41,0C2.77,555.65,1.36,556.34.06,555Z"/><path class="cls-2" d="M159.28,306.59H47.45a3.5,3.5,0,1,1,0-7H152.86l-30.41-47.15-15.84,38.95a3.5,3.5,0,0,1-6.49-2.64l18.39-45.19a3.5,3.5,0,0,1,6.18-.58l37.53,58.22a3.5,3.5,0,0,1-2.94,5.39Z"/><path class="cls-2" d="M249.58,306.59H179.07a3.5,3.5,0,0,1-2.92-1.57l-38.47-58.21a3.5,3.5,0,1,1,5.84-3.86L181,299.59h68.63a3.5,3.5,0,0,1,0,7Z"/><path class="cls-2" d="M243.62,292.42a3.48,3.48,0,0,1-2.84-1.45l-28.27-39.34-19.37,38.85a3.49,3.49,0,0,1-2.93,1.94,3.55,3.55,0,0,1-3.14-1.58l-28.72-44a3.5,3.5,0,1,1,5.86-3.82l25.39,38.92,19.23-38.57a3.49,3.49,0,0,1,6-.48l31.66,44a3.49,3.49,0,0,1-2.84,5.54Z"/><path class="cls-2" d="M273.65,306.59a3.48,3.48,0,0,1-2.83-1.43L228.26,247a3.51,3.51,0,0,1,2.83-5.57h28.8l-39.77-48.8a3.5,3.5,0,0,1,5.43-4.42L270,242.67a3.5,3.5,0,0,1-2.71,5.71H238L276.47,301a3.49,3.49,0,0,1-2.82,5.56Z"/><path class="cls-2" d="M334.16,256.45l-32.44.47-35.81-46a3.5,3.5,0,0,0-5.52,4.3L292.94,257l-29.15.42a3.5,3.5,0,0,0,.1,7l34.44-.5,15.19,19.5a3.5,3.5,0,0,0,2.81,1.35,3.45,3.45,0,0,0,2.1-.74,3.49,3.49,0,0,0,.61-4.91l-11.93-15.32,27.15-.39a3.5,3.5,0,0,0-.1-7Z"/><path class="cls-2" d="M187.22,324.28v3.4a1.71,1.71,0,0,1-1.71,1.7h-9.92a2,2,0,0,1-2-2v-10h1.2v5.19h10.7A1.71,1.71,0,0,1,187.22,324.28Zm-1.21,0a.5.5,0,0,0-.5-.5h-10.7v3.61a.79.79,0,0,0,.78.78h9.92a.5.5,0,0,0,.5-.5Z"/><path class="cls-2" d="M203.42,325.46v1.06a2.91,2.91,0,0,1-2.95,2.86h-8.08a2.91,2.91,0,0,1-2.95-2.86v-1.06a2.91,2.91,0,0,1,2.95-2.87h8.08A2.91,2.91,0,0,1,203.42,325.46Zm-11-1.67a1.69,1.69,0,0,0-1.71,1.67v1.06a1.69,1.69,0,0,0,1.71,1.66h8.08a1.69,1.69,0,0,0,1.71-1.66v-1.06a1.69,1.69,0,0,0-1.71-1.67Z"/><path class="cls-2" d="M217.86,329.38a2.88,2.88,0,0,0-.34-.68,1.94,1.94,0,0,1-1.48.68h-8.82a1.7,1.7,0,0,1-1.7-1.7v-3.4a1.7,1.7,0,0,1,1.7-1.7h9.57v-2.69a1.31,1.31,0,0,0-1.29-1.3h-3.63a3.06,3.06,0,0,0-2.86,2h-1.26a4.26,4.26,0,0,1,4.12-3.2h3.63a2.5,2.5,0,0,1,2.5,2.5v7.51s-.54-.51,0,0a4.35,4.35,0,0,1,1.13,1.95Zm-1.07-5.6h-9.57a.51.51,0,0,0-.5.5v3.4a.51.51,0,0,0,.5.5H216a.78.78,0,0,0,.78-.78Z"/><path class="cls-2" d="M233.62,322.56v1.21H223.17a1.8,1.8,0,0,0-1.78,1.81v3.79H220.2v-6.81h1.19v.6a2.89,2.89,0,0,1,1.77-.6h10.46Z"/><path class="cls-2" d="M248.44,325.7v1.7a2,2,0,0,1-2,2h-9.92a1.71,1.71,0,0,1-1.71-1.7v-3.4a1.71,1.71,0,0,1,1.71-1.7h10.7v-5.19h1.2Zm-1.2-1.92h-10.7a.5.5,0,0,0-.5.5v3.4a.5.5,0,0,0,.5.5h9.92a.78.78,0,0,0,.78-.78Z"/><path class="cls-2" d="M153,336.78a16.09,16.09,0,1,0,16.08,16.08A16.08,16.08,0,0,0,153,336.78ZM159.92,354v.59a1.72,1.72,0,0,1-1.73,1.66h-5.84v-1.2h5.84a.51.51,0,0,0,.51-.51V354a.51.51,0,0,0-.51-.5h-10.4a1.73,1.73,0,0,1-1.74-1.71v-.67a1.73,1.73,0,0,1,1.74-1.72H159.2v1.21H147.79a.51.51,0,0,0-.51.51v.67a.51.51,0,0,0,.51.51h10.4a1.71,1.71,0,0,1,1.73,1.69Z"/><path class="cls-2" d="M194.7,336.78a16.09,16.09,0,1,0,16.08,16.08A16.08,16.08,0,0,0,194.7,336.78Zm6.81,20.66v1.42H200.3v-1.42a4,4,0,0,0-4-4H189.8a.72.72,0,0,0-.71.68v4.78h-1.2v-12h1.2v5.46a2.07,2.07,0,0,1,.7-.13h6.47a5.25,5.25,0,0,1,5.25,5.24Z"/><path class="cls-2" d="M236.41,336.78a16.09,16.09,0,1,0,16.08,16.08A16.08,16.08,0,0,0,236.41,336.78Zm7,16.61a2.92,2.92,0,0,1-3,2.87h-8.07a2.92,2.92,0,0,1-3-2.87v-1.05a2.92,2.92,0,0,1,3-2.87h8.07a2.92,2.92,0,0,1,3,2.87Z"/><path class="cls-2" d="M240.44,350.67h-8.07a1.7,1.7,0,0,0-1.72,1.67v1.05a1.7,1.7,0,0,0,1.72,1.67h8.07a1.7,1.7,0,0,0,1.72-1.67v-1.05A1.7,1.7,0,0,0,240.44,350.67Z"/><path class="cls-2" d="M278.11,336.78a16.09,16.09,0,1,0,16.09,16.08A16.08,16.08,0,0,0,278.11,336.78Zm6.94,14.37a1.68,1.68,0,0,1-1.74,1.61h-10.9v4.68h-1.23v-9.15h12.13a1.67,1.67,0,0,1,1.74,1.6Z"/><path class="cls-2" d="M283.31,349.41h-10.9v2.22h10.9a.49.49,0,0,0,.51-.48v-1.26A.5.5,0,0,0,283.31,349.41Z"/></g></g></svg>