<svg xmlns="http://www.w3.org/2000/svg" viewBox="0 0 381.67 555.82"><defs><style>.cls-1{fill:#1d1d1b;}.cls-2{fill:#fff;}</style></defs><g id="Слой_2" data-name="Слой 2"><g id="Слой_1-2" data-name="Слой 1"><rect class="cls-1" width="381.67" height="555.82"/><polygon class="cls-2" points="304.48 228.4 286.68 228.4 286.68 191.55 269.86 191.55 269.86 241.45 309.2 241.45 309.2 232.15 309.2 228.4 309.2 219.62 304.48 228.4"/><polygon class="cls-2" points="260.49 228.4 242.69 228.4 242.69 191.55 225.87 191.55 225.87 241.45 265.21 241.45 265.21 232.15 265.21 228.4 265.21 219.62 260.49 228.4"/><path class="cls-2" d="M153.07,254.63v-4.22H137.74v39h16.11V272.07c0-3.08.76-5.25,2.28-6.48a9.16,9.16,0,0,1,6-1.93c.57,0,1.11,0,1.64.08s1.21.11,1.92.21V249.69a18.42,18.42,0,0,0-9.41,2.28A12.68,12.68,0,0,0,153.07,254.63Z"/><path class="cls-2" d="M122,242.44a33.27,33.27,0,0,0-14.68-3.07H72.46l10.27,5.52v38.85l-10.27,5.52h34.86a34,34,0,0,0,14.68-3,23.77,23.77,0,0,0,9.91-8.62,24.51,24.51,0,0,0,3.56-13.4A24,24,0,0,0,131.91,251,23.21,23.21,0,0,0,122,242.44Zm-5,28.36a9.72,9.72,0,0,1-4.2,4,13.46,13.46,0,0,1-6.2,1.35H99.55V252.49h7.06a13.46,13.46,0,0,1,6.2,1.35,9.64,9.64,0,0,1,4.2,4,12.81,12.81,0,0,1,1.5,6.42A13.32,13.32,0,0,1,117,270.8Z"/><path class="cls-2" d="M248.47,363a12.76,12.76,0,0,0-5.7-5.63,18.45,18.45,0,0,0-16.83.35,14.59,14.59,0,0,0-3.06,2.37v-3.86H207.56v39h16.1V376.91a11.2,11.2,0,0,1,.79-4.64,5.21,5.21,0,0,1,2.21-2.42,6.27,6.27,0,0,1,3.06-.78,4.27,4.27,0,0,1,3.49,1.56q1.29,1.5,1.29,5.14v19.45h16.11V373A20.49,20.49,0,0,0,248.47,363Z"/><path class="cls-2" d="M240.66,312.4a28.19,28.19,0,0,0-23.52,0,20,20,0,0,0-8,7.12,20.27,20.27,0,0,0,0,21,20.6,20.6,0,0,0,8,7.2,28.29,28.29,0,0,0,23.52,0,20,20,0,0,0,8-7.2,20.27,20.27,0,0,0,0-21A19.42,19.42,0,0,0,240.66,312.4Zm-6.27,21.88a6.08,6.08,0,0,1-11,0,9.81,9.81,0,0,1-.85-4.28,9,9,0,0,1,.85-4.2,6.06,6.06,0,0,1,11,0,9,9,0,0,1,.86,4.2A9.81,9.81,0,0,1,234.39,334.28Z"/><path class="cls-2" d="M221.46,223.6l-14-32H190.91l-14.12,32.33,9.43,17.55,3.33-8.68h19l3.34,8.7,9.59-17.85Zm-27.25-3L199,208.07l4.83,12.56Z"/><path class="cls-2" d="M153.44,206.87a11.86,11.86,0,0,1,3.58-2.94,10.41,10.41,0,0,1,4.33-1.08,12.71,12.71,0,0,1,4.78.82,11.53,11.53,0,0,1,5.09,3.52,16.52,16.52,0,0,1,3.1,5.52l7-15.26,0,0A30.9,30.9,0,0,0,170,190.59a31.27,31.27,0,0,0-11.11-2,26,26,0,0,0-10.13,2,24.49,24.49,0,0,0-8.25,5.8,27.93,27.93,0,0,0-7.21,19.83,24.71,24.71,0,0,0,2.61,9.74,26.89,26.89,0,0,0,6.46,8.11,32.27,32.27,0,0,0,9.82,5.53c.47.18.94.33,1.42.49h17.75L165.92,230h0l-6.73-12.53v10.09a13.36,13.36,0,0,1-1.57-.47,12.78,12.78,0,0,1-4.2-2.43,10.47,10.47,0,0,1-2.63-3.61,11.78,11.78,0,0,1-.87-4.49,16.11,16.11,0,0,1,3.52-9.72Z"/><path class="cls-2" d="M198.39,252.63q-5.49-4.5-15.54-4.49a40.21,40.21,0,0,0-9.34,1.14c-1,.24-2,.52-2.87.82v13a14.58,14.58,0,0,1,4.44-2.08,17.74,17.74,0,0,1,5.35-.86q3.91,0,5.63,1.5a5,5,0,0,1,1.68,3.06h-6.46A31.77,31.77,0,0,0,171.23,266a11.65,11.65,0,0,0-5.84,4,10.55,10.55,0,0,0-1.93,6.41,11.85,11.85,0,0,0,1.64,6.13,11.66,11.66,0,0,0,4.85,4.35,17.34,17.34,0,0,0,8,1.64,13.58,13.58,0,0,0,8.06-2.14,9.11,9.11,0,0,0,3-3.67v5.1h15v-21Q204,257.12,198.39,252.63Zm-10.55,22.52a5.22,5.22,0,0,1-2.07,2.85,5.49,5.49,0,0,1-3,.86,4.42,4.42,0,0,1-2.85-.86,3,3,0,0,1-1-2.28,2.73,2.73,0,0,1,1.14-2.42,6.64,6.64,0,0,1,3.78-.86h4Z"/><path class="cls-2" d="M236.39,251v4.43a10.89,10.89,0,0,0-3.28-3.14,15.46,15.46,0,0,0-8.27-2,19.22,19.22,0,0,0-9.19,2.28,18.11,18.11,0,0,0-6.92,6.49,20.18,20.18,0,0,0,0,20,18.58,18.58,0,0,0,6.92,6.55,19.22,19.22,0,0,0,9.19,2.28,15.46,15.46,0,0,0,8.27-2,11,11,0,0,0,2.49-2.17v.74a7.93,7.93,0,0,1-2.14,6c-1.42,1.43-3.8,2.14-7.12,2.14a23.44,23.44,0,0,1-6.7-1.07,17.09,17.09,0,0,1-5.43-2.54v13.52c.94.32,1.91.61,2.93.85A46.4,46.4,0,0,0,228,304.55q11.19,0,17.46-5.49t6.27-16.82V251Zm-1.5,21.32a5.89,5.89,0,0,1-2.35,2.21,7.3,7.3,0,0,1-3.42.78,7.61,7.61,0,0,1-3.43-.78,6.5,6.5,0,0,1-2.42-2.21,6.26,6.26,0,0,1-.85-3.28,6,6,0,0,1,.85-3.28,5.94,5.94,0,0,1,2.42-2.14,7.61,7.61,0,0,1,3.43-.78,7.3,7.3,0,0,1,3.42.78,5.41,5.41,0,0,1,2.35,2.14,6,6,0,0,1,.85,3.28A6.26,6.26,0,0,1,234.89,272.34Z"/></g></g></svg>