<svg xmlns="http://www.w3.org/2000/svg" viewBox="0 0 381.67 555.82"><defs><style>.cls-1{fill:#020304;}.cls-2{fill:#fdd814;}</style></defs><g id="Слой_2" data-name="Слой 2"><g id="Слой_1-2" data-name="Слой 1"><path class="cls-1" d="M381.59.87q0,274,.08,548c0,5.64-.64,6.91-3.47,6.91q-187.36-.24-374.74,0c-2.82,0-3.46-1.27-3.46-6.91q.14-274,.07-548C1.38-.52,2.79.17,4.14.17Q190.83.11,377.52.17C378.88.17,380.29-.52,381.59.87Z"/><path class="cls-2" d="M260.75,291.63V258.76h7.15l1.15-40-14.56-19-25.15,11.87,2.94,11.11-33.06,6.13-1.54-3.58H180.45l-2.68,8.17-40.11,5.72-1.51-7.5-22.08,3.57,5.06,19.54-6.08.63,9.57,50.85H111.73v49.45h9.36v-18l9.19,4.74v13.26h9.36V322h4.94v33.7h27.15V346.8H153.94v-3.66h13.79v-8.93H153.94v-3.66h17.79V322h5v8.51h3.06v25.19H200l6.24-23.91h.55V322h4.43v34h9.36v-12.9h5.76l2.88,12.6h9.63l-3-12.6H240V322h3.85v9.17h5.62l-6.83,24.53h9.13l1.43-5.26h7.4v5.26h9.36V291.63Zm-59.19-.13,2.59,6.37H173.26l.17-.6,2.89-5,.11-.31Zm-19.37-19.59,1.88-5.79.19-.41h0l4.64,1.1-.32.42L182,272.52Zm3.8-10,0-.07,2.3-7.89,3.7,7.92Zm-7.71,24.61,1.87-8.17,11.49-.13L178,287.5Zm10-12.34,6.14-5.38,1.08,5.7Zm-35.41,33.57h-1.44v-1.49l-6-50.18,27.28-7.18ZM200,288l-11.06-.43,8.87-5.48,2.36,5.87ZM123.9,270l14.68-3.2,5,39.49H130.94Zm6.38,61.24-9.19-4.74V322h9.19Zm58.89-.69h7.74l-4.25,16.25h-3.49Zm31.41,4v-4h10v4Zm35.14,6.58,2.73-10h2.13v10Zm-30.81-35.56-21.3-61.22,34.29-5.61,11.61,20h6.39v32.87h-7.09v14Z"/></g></g></svg>