<svg xmlns="http://www.w3.org/2000/svg" xmlns:xlink="http://www.w3.org/1999/xlink" viewBox="0 0 381.67 555.82"><defs><style>.cls-1{fill:#f8f8f8;}.cls-2{fill:#121212;}.cls-3{fill:url(#Безымянный_градиент_2);}</style><linearGradient id="Безымянный_градиент_2" x1="68.14" y1="277.91" x2="157.6" y2="277.91" gradientUnits="userSpaceOnUse"><stop offset="0" stop-color="#1d71b8"/><stop offset="1" stop-color="#662483"/></linearGradient></defs><g id="Слой_2" data-name="Слой 2"><g id="Слой_1-2" data-name="Слой 1"><path class="cls-1" d="M.06,555Q.06,281.05,0,7.16C0,1.92.27,0,3.34,0q187.49.3,375,0c3.07,0,3.34,1.92,3.34,7.16Q381.57,281,381.61,555c-1.31,1.39-2.72.7-4.07.7q-186.71.06-373.41,0C2.77,555.65,1.36,556.34.06,555Z"/><path class="cls-2" d="M182.86,250.42V269.6h10.73V272H169.75V269.6h10.71V250.42H169.75V248h23.84v2.4Z"/><path class="cls-2" d="M253.61,269.57V272H208.27A10.25,10.25,0,0,1,198,261.74v-3.48A10.25,10.25,0,0,1,208.27,248h45.34v2.41H208.27a7.84,7.84,0,0,0-7.83,7.83v3.48a7.84,7.84,0,0,0,7.83,7.84h45.34Z"/><path class="cls-2" d="M260.36,252v6.44h53.12v2.41H260.36v7.27a1.52,1.52,0,0,0,1.52,1.52h51.6V272h-51.6a3.93,3.93,0,0,1-3.93-3.93V252a3.93,3.93,0,0,1,3.93-3.93h51.6v2.41h-51.6A1.52,1.52,0,0,0,260.36,252Z"/><path class="cls-2" d="M225.32,283.83v24h-2.41V296.72H172.16V307.8h-2.41v-24h2.41v10.48h50.75V283.83Z"/><path class="cls-2" d="M242.78,286.23V305.4h10.73v2.4H229.67v-2.4h10.72V286.23H229.67v-2.4h23.84v2.4Z"/><path class="cls-2" d="M313.53,286.24H287V307.8h-2.41V286.24H258v-2.41h55.58Z"/><path class="cls-3" d="M142,233.18H83.75a15.61,15.61,0,0,0-15.61,15.61V307a15.61,15.61,0,0,0,15.61,15.61H142A15.61,15.61,0,0,0,157.6,307V248.79A15.61,15.61,0,0,0,142,233.18ZM85,249.73A1.71,1.71,0,0,1,86.74,248h.7l50.76,21.35V248h2.41v22.25A1.72,1.72,0,0,1,138.9,272h-.7L87.44,250.63V272H85Zm55.68,36.52H90.16A2.71,2.71,0,0,0,87.45,289v2.64a2.71,2.71,0,0,0,2.71,2.71h8.37v0h37a5.14,5.14,0,0,1,5.14,5.14v3.25a5.14,5.14,0,0,1-5.14,5.13H85v-2.41h50.54a2.73,2.73,0,0,0,2.73-2.72v-3.25a2.73,2.73,0,0,0-2.73-2.72H113.79v0H90.16A5.13,5.13,0,0,1,85,291.6V289a5.14,5.14,0,0,1,5.13-5.13h50.55Z"/></g></g></svg>