<svg xmlns="http://www.w3.org/2000/svg" viewBox="0 0 381.67 555.82"><defs><style>.cls-1{fill:#f8f8f8;}.cls-2{fill:#786aad;}.cls-3{fill:#18172e;}</style></defs><g id="Слой_2" data-name="Слой 2"><g id="Слой_1-2" data-name="Слой 1"><path class="cls-1" d="M.06,555Q.06,281.05,0,7.16C0,1.92.27,0,3.34,0q187.49.3,375,0c3.07,0,3.34,1.92,3.34,7.16Q381.57,281,381.61,555c-1.31,1.39-2.72.7-4.07.7q-186.71.06-373.41,0C2.77,555.65,1.36,556.34.06,555Z"/><path class="cls-2" d="M227.4,222.63h16a31.74,31.74,0,0,0-63.47-.43h0c0,.07,0,.14,0,.22s0,.14,0,.21h0a51.5,51.5,0,0,0,103-.43h-16a35.5,35.5,0,0,1-71,.29,15.74,15.74,0,0,1,31.47.14Z"/><path class="cls-3" d="M171.23,207.6v9a31.79,31.79,0,0,1-31.77,31.77H113.15v25.33H98.74V207.59a31.79,31.79,0,0,1,31.77-31.77h9a31.72,31.72,0,0,1,12.34,2.59h.11c.9.39,1.78.82,2.63,1.28l.19.1c.8.45,1.63.94,2.4,1.47l.23.15a20.59,20.59,0,0,1,2.21,1.6l.22.19c.71.58,1.38,1.2,2,1.84l.19.19c.65.66,1.26,1.35,1.85,2.05l.18.2c.54.73,1.08,1.49,1.6,2.25l.11.18a24.73,24.73,0,0,1,1.61,2.48v.1a32,32,0,0,1,3.68,11.89C171.16,205.44,171.23,206.51,171.23,207.6Zm-14.44-.11a17.71,17.71,0,0,0-.31-3.2c-.1-.45-.19-.9-.32-1.33v-.11a17.42,17.42,0,0,0-10.52-11.52l-.32-.11c-.34-.12-.69-.24-1-.33l-.69-.18-.77-.17a7.37,7.37,0,0,0-1.33-.21h-.19a14.1,14.1,0,0,0-1.73-.1h-9.51a17.25,17.25,0,0,0-16.91,17.23h0v26.46h26.31a17.41,17.41,0,0,0,17.36-17.36Z"/><path class="cls-3" d="M171.22,328a31.66,31.66,0,0,1-11.65,24.55,31.58,31.58,0,0,1,11.63,24.53v8H156.8V377a17.25,17.25,0,0,0-17.21-17.24H113.15v25.33H98.74V319a31.77,31.77,0,0,1,31.76-31.76h9a31.84,31.84,0,0,1,12.37,2.55H152a28.81,28.81,0,0,1,2.62,1.28l.2.09c.82.47,1.6,1,2.36,1.52l.23.15a20.59,20.59,0,0,1,2.21,1.6l.22.21c.7.57,1.38,1.2,2,1.84l.2.19c.65.65,1.26,1.35,1.85,2.05l.18.21c.51.72,1.07,1.47,1.6,2.24l.11.17c.62.88,1.12,1.64,1.6,2.48v.1A31.65,31.65,0,0,1,171,315.84a21.18,21.18,0,0,1,.16,3.21v9Zm-31.68,17.35A17.41,17.41,0,0,0,156.77,328v-9.08a17.71,17.71,0,0,0-.31-3.2c-.09-.45-.19-.89-.32-1.33a.09.09,0,0,0,0,0,.13.13,0,0,0,0-.06,17.43,17.43,0,0,0-10.51-11.51l-.33-.11a10.55,10.55,0,0,0-1-.34l-.68-.17-.77-.18a7.37,7.37,0,0,0-1.33-.21h-.19a16.56,16.56,0,0,0-1.73-.09h-9.51a17.23,17.23,0,0,0-16.9,17.22v26.44h26.3Z"/><path class="cls-3" d="M269,287.35v14.41a11.06,11.06,0,0,0-1.6-.08h-9.08a17.25,17.25,0,0,0-17.24,17.25v66.19H226.43V319a17.4,17.4,0,0,0-17.35-17.36H200a17.07,17.07,0,0,0-3.38.34V287.48a33.75,33.75,0,0,1,3.51-.21h67.28A11.06,11.06,0,0,1,269,287.35Z"/></g></g></svg>