<svg xmlns="http://www.w3.org/2000/svg" xmlns:xlink="http://www.w3.org/1999/xlink" viewBox="0 0 381.67 555.82"><defs><style>.cls-1{fill:#f8f8f8;}.cls-2{fill:url(#Безымянный_градиент_18);}.cls-3,.cls-4{fill:#786aad;}.cls-4{opacity:0.08;}</style><linearGradient id="Безымянный_градиент_18" x1="621.05" y1="-6291.12" x2="606.6" y2="-6523.76" gradientTransform="translate(6568.55 872.56) rotate(-90)" gradientUnits="userSpaceOnUse"><stop offset="0.39" stop-color="#786aad"/><stop offset="1" stop-color="#584d9b"/></linearGradient></defs><g id="Слой_2" data-name="Слой 2"><g id="Слой_1-2" data-name="Слой 1"><path class="cls-1" d="M.06,555Q.06,281.05,0,7.16C0,1.92.27,0,3.34,0q187.49.3,375,0c3.07,0,3.34,1.92,3.34,7.16Q381.57,281,381.61,555c-1.31,1.39-2.72.7-4.07.7q-186.71.06-373.41,0C2.77,555.65,1.36,556.34.06,555Z"/><path class="cls-2" d="M89.79,276.55h-.05c0,.32,0,.65,0,1s0,.65,0,1h.05a62.3,62.3,0,0,0,124.56-2H182.94a30.88,30.88,0,0,1-61.76.65,69.68,69.68,0,0,1,139.34,1.31h31.41a101.08,101.08,0,0,0-202.14-2Z"/><path class="cls-3" d="M182.94,278.15h31.41a62.3,62.3,0,0,0-124.59-.84h0c0,.14,0,.28,0,.42s0,.28,0,.42h0a101.09,101.09,0,0,0,202.17-.84H260.52a69.68,69.68,0,0,1-139.36.56,30.89,30.89,0,0,1,61.78.28Z"/><path class="cls-4" d="M71.2,450.77a65.74,65.74,0,0,1,16.72,91,29.11,29.11,0,0,1-47.65-33.45L16,491.39a58.79,58.79,0,0,0-1.7,64.43h99.81A95.23,95.23,0,0,0,0,415.62v32.74A65.76,65.76,0,0,1,71.2,450.77Z"/><path class="cls-4" d="M339.24,5.26a29.14,29.14,0,0,1,0,41.18l20.93,20.93A58.79,58.79,0,0,0,371.36,0H332.05A29,29,0,0,1,339.24,5.26Z"/><path class="cls-4" d="M298.62,97.58a65.75,65.75,0,0,1-.36-92.5,29.19,29.19,0,0,1,7-5.08H264.71a95.24,95.24,0,0,0,117,139.08V105.66A65.78,65.78,0,0,1,298.62,97.58Z"/></g></g></svg>