<svg xmlns="http://www.w3.org/2000/svg" viewBox="0 0 381.67 555.82"><defs><style>.cls-1{fill:#fbeff5;}.cls-2{fill:#bd8ec0;}.cls-10,.cls-100,.cls-101,.cls-102,.cls-103,.cls-104,.cls-105,.cls-106,.cls-107,.cls-108,.cls-109,.cls-11,.cls-110,.cls-111,.cls-112,.cls-12,.cls-13,.cls-14,.cls-15,.cls-16,.cls-17,.cls-18,.cls-19,.cls-2,.cls-20,.cls-21,.cls-22,.cls-23,.cls-24,.cls-25,.cls-26,.cls-27,.cls-28,.cls-29,.cls-3,.cls-30,.cls-31,.cls-32,.cls-33,.cls-34,.cls-35,.cls-36,.cls-37,.cls-38,.cls-39,.cls-4,.cls-40,.cls-41,.cls-42,.cls-43,.cls-44,.cls-45,.cls-46,.cls-47,.cls-48,.cls-49,.cls-5,.cls-50,.cls-51,.cls-52,.cls-53,.cls-54,.cls-55,.cls-56,.cls-57,.cls-58,.cls-59,.cls-6,.cls-60,.cls-61,.cls-62,.cls-63,.cls-64,.cls-65,.cls-66,.cls-67,.cls-68,.cls-69,.cls-7,.cls-70,.cls-71,.cls-72,.cls-73,.cls-74,.cls-75,.cls-76,.cls-77,.cls-78,.cls-79,.cls-8,.cls-80,.cls-81,.cls-82,.cls-83,.cls-84,.cls-85,.cls-86,.cls-87,.cls-88,.cls-89,.cls-9,.cls-90,.cls-91,.cls-92,.cls-93,.cls-94,.cls-95,.cls-96,.cls-97,.cls-98,.cls-99{stroke:#1d1d1b;}.cls-3{fill:#b7dff4;}.cls-4{fill:#f1b4d1;}.cls-5{fill:#f0b4d1;}.cls-6{fill:#b9e0f3;}.cls-7{fill:#bfafd4;}.cls-8{fill:#f3afb3;}.cls-9{fill:#c0b1d3;}.cls-10{fill:#bfb0d4;}.cls-11{fill:#fbf2f7;}.cls-12{fill:#4a7fbe;}.cls-13{fill:#477ebe;}.cls-14{fill:#7a4b96;}.cls-15{fill:#c0b4d6;}.cls-16{fill:#4981c0;}.cls-17{fill:#7a4a95;}.cls-18{fill:#784b96;}.cls-19{fill:#794b96;}.cls-20{fill:#d676ab;}.cls-21{fill:#d777ac;}.cls-22{fill:#d677ac;}.cls-23{fill:#d476ab;}.cls-24{fill:#c1b1d5;}.cls-25{fill:#c0afd4;}.cls-26{fill:#baddf1;}.cls-27{fill:#bfb1d4;}.cls-28{fill:#c2b2d5;}.cls-29{fill:#c0b0d3;}.cls-30{fill:#c4afd2;}.cls-31{fill:#c1b5d5;}.cls-32{fill:#f9f2f5;}.cls-33{fill:#d37aae;}.cls-34{fill:#d07aac;}.cls-35{fill:#bcddf1;}.cls-36{fill:#f0bfd7;}.cls-37{fill:#edb5d2;}.cls-38{fill:#d278ac;}.cls-39{fill:#efb9d4;}.cls-40{fill:#edb7d3;}.cls-41{fill:#edb6bf;}.cls-42{fill:#ebc0d9;}.cls-43{fill:#c1b2d4;}.cls-44{fill:#f9ecf3;}.cls-45{fill:#efb5d2;}.cls-46{fill:#bed5ed;}.cls-47{fill:#784a96;}.cls-48{fill:#467fbf;}.cls-49{fill:#d678ac;}.cls-50{fill:#d379ac;}.cls-51{fill:#744d96;}.cls-52{fill:#ecb7d4;}.cls-53{fill:#c3b2d4;}.cls-54{fill:#f2b8d3;}.cls-55{fill:#efbbd5;}.cls-56{fill:#ebbad5;}.cls-57{fill:#4a77aa;}.cls-58{fill:#bdaed3;}.cls-59{fill:#4280bf;}.cls-60{fill:#c1b3d5;}.cls-61{fill:#a5c8eb;}.cls-62{fill:#e8e0ef;}.cls-63{fill:#b8e0f3;}.cls-64{fill:#bdaed4;}.cls-65{fill:#477fbe;}.cls-66{fill:#cfb2d1;}.cls-67{fill:#6081b1;}.cls-68{fill:#d873a9;}.cls-69{fill:#f2b9c8;}.cls-70{fill:#f5dee9;}.cls-71{fill:#d578ad;}.cls-72{fill:#b9def2;}.cls-73{fill:#774a96;}.cls-74{fill:#f0e2ee;}.cls-75{fill:#704c90;}.cls-76{fill:#b8dff3;}.cls-77{fill:#477ebd;}.cls-78{fill:#c0daf0;}.cls-79{fill:#6f5591;}.cls-80{fill:#e9b6d2;}.cls-81{fill:#c57ca8;}.cls-82{fill:#7e4f98;}.cls-83{fill:#eedaeb;}.cls-84{fill:#d085b5;}.cls-85{fill:#eeb3d0;}.cls-86{fill:#774b96;}.cls-87{fill:#447ebf;}.cls-88{fill:#577aad;}.cls-89{fill:#d27aad;}.cls-90{fill:#efebf4;}.cls-91{fill:#754b96;}.cls-92{fill:#ecebf4;}.cls-93{fill:#e5c7e0;}.cls-94{fill:#427fbf;}.cls-95{fill:#beafd4;}.cls-96{fill:#457ebe;}.cls-97{fill:#735997;}.cls-98{fill:#bedbf2;}.cls-99{fill:#4480b7;}.cls-100{fill:#754c97;}.cls-101{fill:#f1b4bb;}.cls-102{fill:#f8dee8;}.cls-103{fill:#f0b8d3;}.cls-104{fill:#d377ac;}.cls-105{fill:#edddec;}.cls-106{fill:#b6a8d1;}.cls-107{fill:#4d80b3;}.cls-108{fill:#e0b5d5;}.cls-109{fill:#4f7eb8;}.cls-110{fill:#f3b4c6;}.cls-111{fill:#487ebe;}.cls-112{fill:#4980bf;}.cls-113{fill:#1d1d1b;}.cls-114{fill:#e65196;}</style></defs><g id="Слой_2" data-name="Слой 2"><g id="Слой_1-2" data-name="Слой 1"><path class="cls-1" d="M.06,555Q.06,281.05,0,7.16C0,1.92.27,0,3.34,0q187.49.3,375,0c3.07,0,3.34,1.92,3.34,7.16Q381.57,281,381.61,555c-1.31,1.39-2.72.7-4.07.7q-186.71.06-373.41,0C2.77,555.65,1.36,556.34.06,555Z"/><path class="cls-2" d="M197.13,379.16c5.86-.88,5.63-.9,5.09,5.29a63.72,63.72,0,0,0,.33,11.38c.43,4.6-1.79,6.09-5.9,5.42-5.37-.87-10.78-1.12-16.18-1.58-1.72-.15-3.28.36-4.83.3-3.6-.13-8.13,2.64-10.43-2.7-.12-.29-1.06-.59-1.19-.45-4,3.87-2.47-.93-3.38-3.06-3.39,4.6-8,3.92-12.23,3.82-2.69-.06-6.14.7-7.25-3.52-.57-2.19-3-1.51-4.74-1.77-5.75-.85-11.41,1.79-17.26.16-2.72-.75-4.29-1.68-3.86-4.54.23-1.52-.18-3.34-1.29-3.36-4.81-.09-5.69-3.67-7.1-7-.42-1-1.6-1-2.58-1.24-1.29-.29-3.29-.42-3.68-1.23-2-4.13-5.43-6.1-9.39-7.8-1.3-.55-1.36-2.45-.82-4.05a48.4,48.4,0,0,0,1.1-4.8c1.36-.76,2.92-.88,4.37-1.38a1.74,1.74,0,0,1,1.17.64c1.42,3.62,1.69,7.68,4.35,10.79,1.61,2.22,4.11,1.32,6.22,1.74,3.53.66,5.26,3.18,6.5,6.22.22.4.41.83.6,1.25a10.32,10.32,0,0,0,3.34,4.12c1.5,1.27,3.08,2.33,5.19,2.12,2.45.16,3.45-2.35,5.48-3,2.15.1,3.33,1.74,4.72,3a7,7,0,0,0,5.21,2c1.77.29,3.75-.81,5.32.77,1,2.11,2,4.23,4.65,4.71,1.58.46,3.16,1,4.6-.33,1-1.15,1-2.82,2-4a2.81,2.81,0,0,1,1.28-.45c2.17.23,3.39,1.89,4.83,3.2,4,3.6,5.77,3.53,9.47-.35,1.57-1.65,2.6-3.83,4.73-5a8.26,8.26,0,0,0,2.17-1.12,4.73,4.73,0,0,0,.67-6.29c-1.55-2.22-3.49-.32-5.19.48-1.36.64-2,2.19-3.52,2.64-2.17.54-4.31.72-6.32-.55-1.32-5.1-4.9-6.35-9.71-5.91a56.12,56.12,0,0,1-8.4-.1,10.72,10.72,0,0,1-2.32-.32c-1.66-.67-3.5-.65-5.14-1.36a3.17,3.17,0,0,1-1.11-1c-1.12-2.51-2.12-4.9-4.89-6.39-3.14-1.68-3.37-4.88-2.59-8.13,5.54-1.38,7.53,3.13,10.39,6.2,3.05,4.88,7.88,6.14,13.15,6.1,2.76,0,5.49-.9,8.29-.85,2.37,0,2.84-1.85,3.57-3.47,2.68-2.85,4.16-6.59,7-9.35,2.17,0,3.18,1.35,3.71,3.23.2,1.59-.71,2.78-1.41,4.08-2.4,4.43-.8,7.62,4.23,8.39,2.93.44,5.92-.07,8.86.41,2.56.58,4.17,2.42,5.54,4.43C193.7,377.43,195.51,378.14,197.13,379.16Z"/><path class="cls-3" d="M269.46,304.49c-1.44,2.8-1,5.83-.91,8.76.2,4.28-1.3,6.71-5.92,6.43-3.33,2.25-6.68,1.37-10,.09a13.77,13.77,0,0,0-8.05-1.82c-3.93.11-6.65-1.56-7.7-5.5-.24-2.17,1-3.81,2.2-5.33a7,7,0,0,0,.85-8.27,3.89,3.89,0,0,1,0-2.19,13.12,13.12,0,0,1,3.81-4.65,9.23,9.23,0,0,1,3.09-.85c4.09-1.39,8.16-2.9,12.49-3.35,7.59-.79,10.49,1.73,10.65,9.3C270,299.57,270.4,302.08,269.46,304.49Z"/><path class="cls-4" d="M203.45,351.43c-4.21.43-8.57-1-12.65,1-3.47-3.95-7.65-5.2-12.81-3.79a7.83,7.83,0,0,1-6.69-.87,4.68,4.68,0,0,1-.61-4.59c.73-1.79,2.76-2,3.95-3.29a18,18,0,0,1,1.48-1.29c4.26-3.21,6.66-7,3.88-12.4a6.1,6.1,0,0,1,2.49-2.89c3.64-2.39,7.43-4.22,12-4.17,4.16,0,7.47,1.23,9.16,5.35a34,34,0,0,1,1.4,11.66,15.45,15.45,0,0,0,1.37,7.18C207,346.61,207.53,349.86,203.45,351.43Z"/><path class="cls-5" d="M257.33,240.1c-.7,2.49.09,4,2.83,3.62,1.88-.23,4.15-1.94,5.43.17,1.38,2.29,2.34,5,1.42,8a22.69,22.69,0,0,0-.53,2.87c-3.93,2-8,3.63-12.13,5.25a8.21,8.21,0,0,1-5.39-.55c-2.26-2.33-.05-3.87,1-5.57,2.85-4.45,1.95-6.34-3.24-6.61-2-.11-4-.11-6-.37-1.71-.22-3.41-.21-4.31,1.62s-.07,3.18.87,4.63c1.46,2.25,4.67,3.44,4.23,6.86a25.82,25.82,0,0,1-10.86-1.68c-6.74-5.35-6.36-12.57-5.23-20,.3-2,2-3,3.32-4.2,5.72-3,10.87-7.78,18.18-6.07C250.78,231.78,253.93,236,257.33,240.1Z"/><path class="cls-6" d="M247.57,228.86c-7.13-1.13-12.27,3.57-18.13,6.15-2.26,1-4.19,3.21-7.06,1.84a19,19,0,0,1-3.9-12.87c-.9-4,1.92-6.2,4.3-8.59,1.26-1.26,2.72-2.29,4.06-3.46,3.72-2.77,7.81-4.36,12.54-3.91l9.28.14c3.76,2.07,3.19,5.73,3.31,9.1a20.17,20.17,0,0,1-.41,5.85C250.57,225.25,250,227.69,247.57,228.86Z"/><path class="cls-7" d="M239.38,208c-3.71,2.18-8.45,1.89-11.82,4.88-3.61-1-7.55-.83-10.86-2.93-4.93-4.9-2.81-11.14-3.21-16.9A35.27,35.27,0,0,1,229.61,186c9.47,3.2,9.8,3.66,9.8,13.66C239.41,202.44,239.39,205.23,239.38,208Z"/><path class="cls-8" d="M229.61,186a86.32,86.32,0,0,1-16.12,7.08,41.63,41.63,0,0,0-4-4.31c-5.29-4.43-6.16-9.65-3.2-15.69,1.4-1.08,2.81-.38,4.25-.09,6,1.21,7.29.39,8.67-5.31a3.49,3.49,0,0,1,1.38-2.51c1.49,0,3,.09,4.49,0,3.22-.21,4.52,1.27,4.47,4.42C229.51,175,229.59,180.51,229.61,186Z"/><path class="cls-7" d="M214.52,366.42c-4.44-1.09-7.79-3.42-9.13-8-1.14-9.22.39-12.46,7.52-15.85,5.2-.15,8.24-2.84,9.25-7.9.28-.21.79-.39.84-.25,2,5.05,7.25,7.05,10.36,11.05-.36,1.27-2.26,2.25-.75,3.87-1.6,2-3.92,1.34-6,1.57-4.59.5-5.67,2.72-3.22,6.62,2,3.2,5.32,4.82,8.25,6.91a4.59,4.59,0,0,1-.06.91C226.07,368.23,220.3,367.34,214.52,366.42Z"/><path class="cls-9" d="M222.38,236.85l7.06-1.84c-3.91,4.16-4.49,13.32-1.13,18.48,1,1.5,2.14,2.89,3.22,4.33a2.19,2.19,0,0,1-1.19,2.63,5.22,5.22,0,0,1-3.77.24,3.53,3.53,0,0,1-2.24-3c-.5-2.8-1.86-4.51-5-4.44-3.26.07-5.75,1.32-7.28,4.28-.77,1.48-.54,3.28-1.58,4.66a4.48,4.48,0,0,1-2.06.86,45.63,45.63,0,0,1-5.36.1,7.33,7.33,0,0,1-3-.57,2.18,2.18,0,0,1-.94-1.07c1.08-3.85,3.56-7,5.27-10.57,5,.3,8.34-1.25,8.1-7.08-.11-2.54,2-3.57,4-4.46S220.43,237.69,222.38,236.85Z"/><path class="cls-10" d="M152.44,255.75c4.52-2,9.18-3.7,13.32-6.53,3-2,6.41-1.25,9.7-1.24a1.53,1.53,0,0,1,.52,1.76c-2,4.31-.54,7.87,2.29,11.17a17,17,0,0,1,.79,7.33c-6,.18-10.61,3.26-15.05,6.8-1.18-.11-1.52-1.41-2.53-1.77-.82-.27-1.67-.45-2.47-.8a2.5,2.5,0,0,1-1-1,3.77,3.77,0,0,1,.86-3.36c1.76-2.67,5.64-4.8,4.46-8.31S158,257.57,155,257A3.4,3.4,0,0,1,152.44,255.75Z"/><path class="cls-11" d="M83.37,334.53c-3.73-2.39-1.66-6-1.47-8.89.17-2.53,3-2.13,4.89-2,2.75.15,3.94-.84,3.77-3.69s.1-5.88-.06-8.81c-.19-3.52.6-5.92,4.82-5.48,2.33.24,3.31-.86,3.24-3.18,0-1.45,0-3.05,2.06-3.37,1.81,1.58-2.44,3-.11,4.57a5.15,5.15,0,0,1,1.82,4.87,15,15,0,0,0-3.08,11.58,27.85,27.85,0,0,0-1.42,9.19c0,2.7-1.19,4.42-4.32,3.84C90,332.49,87,335.46,83.37,334.53Z"/><path class="cls-10" d="M250.56,223.76c-.48-5.22,1.17-10.7-1.9-15.6,3.22-2.61,8.07-.86,11.06-4.09,3.26.51,4.75,2.66,5.34,5.66-.78,2.94,1.46,5.39,1.35,8.23-.34,2-.67,4-1,6.06C260.41,226.35,255.45,226.68,250.56,223.76Z"/><path class="cls-12" d="M262.38,195.78c.32-3.35.6-6.73,5.16-7,3-.52,6.13-.29,9.22-.91,2.8-.57,5.63.38,5.88,4.15.44,6.84-5.36,9.31-9.26,13.11C266.9,205.31,264.87,200.29,262.38,195.78Z"/><path class="cls-13" d="M233.36,345.45c-4.67-2.49-10.13-4.21-10.61-10.79-1.81-1.72-.93-3.27.3-4.8,4.31-3,9.16-1.61,13.84-1.65a7.38,7.38,0,0,1,6.68,5.86c.14,1.75,0,3.39-1.81,4.35Z"/><path class="cls-14" d="M171.67,347.68c3.91-.37,7.82-.82,11.73-1.08,4.17-.29,7,1.22,7.4,5.83-.56,2.62-2.81,4.07-4.26,6.07-4.24,6.35-8.55,6.26-11.81-.24l-3.25-3a2.58,2.58,0,0,1-1.92-2,7.4,7.4,0,0,1,0-3.68C170,348.56,170.49,347.76,171.67,347.68Z"/><path class="cls-15" d="M269.46,304.49c-1.51-2.41-.92-5.11-1-7.69-.1-6.81-2.35-8.81-9.14-7.49-4.32.84-8.56,2.13-12.84,3.21-1.45-1.29-1.53-3.25-2.35-4.85.69-2.52,3.21-3.18,4.83-4.76,2.39-1,4.29-2.94,6.79-3.81,2.53-.06,4.65,1.13,6.78,2.28a5,5,0,0,0,5.17,3c1.63-.06,3.36-.11,4.59,1.36,0,4.56,0,9.12.12,13.68C272.49,301.81,271.84,303.63,269.46,304.49Z"/><path class="cls-16" d="M250.56,223.76l14.84.26c2.55,7.49,1.61,9.36-8.07,16.07a19.62,19.62,0,0,1-9.76-11.23C248.57,227.16,248.52,224.85,250.56,223.76Z"/><path class="cls-17" d="M112.22,285c.15-2,1.38-3,3.3-3.32a19,19,0,0,1,9.6-1.48c6.95,1.41,8.59,4,6.61,10.25-3.29,2.47-5,6.73-9.37,8C115.26,296.53,111.11,291,112.22,285Z"/><path class="cls-18" d="M101.59,308.68l-1.08-5a7.27,7.27,0,0,1,3.07-3c3.18-2.4,6.79-1.34,10.28-1.27a16.15,16.15,0,0,1,5.63,1.72c2.51,2.28,2.46,5,.9,7.63-2.57,4.31-5.74,8-11.24,8.66A22.74,22.74,0,0,1,101.59,308.68Z"/><path class="cls-19" d="M197.13,379.16c-1.9.69-3.24.3-4.52-1.46a54.15,54.15,0,0,0-5-5.38,5.45,5.45,0,0,1-2-6.57c1.07-3.12,4.14-1.07,6-2.16,3,0,6-.28,8.94-.06,4.23.3,5.71,3.11,3.75,6.87A32.06,32.06,0,0,1,197.13,379.16Z"/><path class="cls-18" d="M262.3,281.47c-2.79,1.64-4.46-1.74-6.93-1.53a2.45,2.45,0,0,1-2.47-1.13c-.84-1.92-2.21-3.63-2.42-5.82a22.89,22.89,0,0,1,.53-5.08,4,4,0,0,1,2.36-2.15c3.77-.86,7.58-.55,11.37-.37a5.52,5.52,0,0,1,4.58,2.56c.37,1.27.73,2.54,1.1,3.81C270.15,277,266.72,279.66,262.3,281.47Z"/><path class="cls-20" d="M231.66,364.42c-4.31-.29-10.24-5.11-11-9.11-.66-3.26.24-5.6,4.06-5.77,2.65-.11,5.29-.14,7.94-.21s5.31.11,6.4,3.22c1,2.81-.75,4.63-2.4,6.46S233.31,362.62,231.66,364.42Z"/><path class="cls-21" d="M224.44,381.54l3.41-2.19c4.21-2.44,8.44-2,12.69-.13,3.65,2.81,3.19,5.68.17,8.62A16.79,16.79,0,0,0,238,390.7c-2.32,3.76-5.12,4.17-8.53,1.51C224,388.56,222.8,386,224.44,381.54Z"/><path class="cls-22" d="M204.46,250.92c.64,4.69-3.13,7.38-5,11a3.27,3.27,0,0,1-2.91.89c-2.45-.79-4.91-1.56-7.36-2.36-5.86-4.69-6.28-7.38-1.82-11.69C193.06,249.69,199.16,247.22,204.46,250.92Z"/><path class="cls-23" d="M152.44,255.75c3.11.48,6.3-.36,9.4.68,3.94,1.32,4.95,3.74,2.4,7.05-1.48,1.92-2.43,4.43-5,5.4a3,3,0,0,1-1.5.2c-2.87-1.09-6.2-.37-8.88-2.25-2.29-3.08-3.74-6.28-1.36-10C149,255.79,150.74,255.88,152.44,255.75Z"/><path class="cls-24" d="M191.62,363.59c-5.87,1.5-6.13,2.05-4,8.73-3.16,0-6.32.08-9.48,0a6.84,6.84,0,0,1-6.44-3.91c-1.36-2.79-.68-5.11,1.54-7.11a4.46,4.46,0,0,0,1.53-3c5.71,5.14,5.71,5.14,11.81.24C185.56,362.84,188.19,363.61,191.62,363.59Z"/><path class="cls-25" d="M269.32,268c-5.46-2.09-11.09-.95-16.66-.9-.89-.83-.6-1.83-.45-2.82.53-1.89.77-3.92,2.29-5.39,3.85-1.8,7.24-4.9,12-4.13,2.6.32,3.09,2.17,3.06,4.32C269.5,262,269.4,265,269.32,268Z"/><path class="cls-26" d="M187.41,248.71c-3.27,4.43-1.38,7.86,2.15,11-2.4,3.31-6.51,3.76-11.85,1.31-5.26-4.22-5.46-5.4-2.25-13C179.44,248.28,183.66,244.62,187.41,248.71Z"/><path class="cls-27" d="M282.64,192.06c-1.72-3.13-4.64-3.23-7.71-3.15-2.46.07-4.93,0-7.39-.09,1-.89,2.17-.75,3.3-.69,2.39.11,3.44-.65,3.7-3.32.42-4.39,7.1-8.23,11.3-6.93,3.13,1,3.33,4,3.08,6.09-.27,2.41.89,6-3,7.08C284.83,191.36,283.74,191.72,282.64,192.06Z"/><path class="cls-28" d="M125.63,281.52l-10.11.19c1.25-1.47,3.15-2.16,4-4.17,3.13-7.08,6.92-8.29,14-4.81,1.39,5.91,6.06,4.48,10.09,4.47,2.61,1,4.52,2.72,5.13,5.59-1.4,1.41-1.61,4.25-4.58,3.82-.95-4.52-3.88-5.83-8.27-5.63C132.49,281.14,129,280.53,125.63,281.52Z"/><path class="cls-29" d="M224.44,381.54c-1.12,4.88,3.72,6.95,5.06,10.67-3.36,4.3-6.53,5.07-12.09,2.89-2.86-1.12-3-3.55-3-6.12,0-2.72,1.74-4.12,3.71-5.37,1.5-1,3.41-1.33,4.31-3.1Z"/><path class="cls-30" d="M220.63,165.16c1.07,10.12-3.39,11.92-14.3,7.91q.09-4.42.2-8.85a16.41,16.41,0,0,0,10.95-4C220.77,160.44,220.4,163,220.63,165.16Z"/><path class="cls-31" d="M83.37,334.53c2.59-1.52,5.57-3.29,8.31-2.74,5.39,1.08,5-1.84,4.81-5.28a9.41,9.41,0,0,1,2.08-6.93,1,1,0,0,1,1.31.15,4.2,4.2,0,0,1,.09,3.81c-1.11,3.27-.89,6.16,2,8.45.7.54,1,1.3.19,2.07-2.6,1.48-5.48.59-8.19,1a3.19,3.19,0,0,0-2.71,4,8.74,8.74,0,0,1-.06,4.37,7.82,7.82,0,0,1-2.61,3.38,4.46,4.46,0,0,1-5.16-3.25C82.17,340.53,80,337.57,83.37,334.53Z"/><path class="cls-32" d="M83.48,343.51l5,3c2.36,3.55,6,6.2,7.2,10.56-.49,3.17-2.33,2.31-4.18,1.4-.56-1.21-1.36-1.51-2.76-1.27-2.18.38-5.51,1.17-5.82-1.68C82.54,351.6,78.78,347.25,83.48,343.51Z"/><path class="cls-33" d="M262.38,195.78c3.95,2.8,5.79,8.05,11,9.39a3.78,3.78,0,0,1-.06.82c-2.43,5-4.28,5.88-8.78,3.92-.87-2.55-3.19-3.91-4.82-5.84C257,197.51,257.07,197.23,262.38,195.78Z"/><path class="cls-34" d="M241.76,338.42l.88-4c3.59-2.87,6.2-7.05,11.09-8.18,1.69,1,2.83,2.16,2,4.28-.43,5.54-4.92,7.89-8.76,10.48C244.47,342.69,243.54,339.26,241.76,338.42Z"/><path class="cls-35" d="M262.3,281.47c2.73-3.21,6.51-5.56,8.12-9.71,3.25.78,3.18,3.43,3.05,5.83-.16,2.74-.74,5.46-1.14,8.18-2.3,0-4.61-.1-6.91-.06C262.31,285.77,261.14,284.5,262.3,281.47Z"/><path class="cls-36" d="M300.44,174c.4,3.31-.55,5.35-4.51,5.19-3.65-.14-6.24-1.32-6.38-5.29-.14-3.78,2.61-5.35,5.74-5.53C298.76,168.17,300.92,170.06,300.44,174Z"/><path class="cls-37" d="M147.52,256.84c-.51,3.45.73,6.55,1.94,9.66-.69,1.44-2.1,1.63-3.37,1.58-3-.12-4.87,1.56-6.45,3.79-1,.11-1.51-.19-1.27-1.27-.58-1.18-1.12-2.38-1.74-3.54-2-3.68-.53-5.87,3.08-7.2C142.33,258.89,144.92,257.85,147.52,256.84Z"/><path class="cls-38" d="M119.42,301.78c-1.71-.18-3.45-.24-5-1.21-3.49-1.61-5.59-4.46-7-7.89-.81-4,2.68-5.42,4.77-7.66.36,6.65,5.1,9.91,10.11,13C122.68,300.24,121.29,301.2,119.42,301.78Z"/><path class="cls-39" d="M217.48,160.2q-3.47,7.45-10.95,4c-1.52-4.71-.28-7.39,3.65-9.12C215.68,152.68,216,157.21,217.48,160.2Z"/><path class="cls-40" d="M264.54,209.91c4.06,1.22,6.17-1.91,8.78-3.92,3.32,8.59,1.5,11.75-6.91,12C264.93,215.47,262,213.32,264.54,209.91Z"/><path class="cls-41" d="M216.7,210c3.83.19,7.93-.59,10.86,2.93-3.67,3.17-7.8,6-9.08,11.08C214.88,219.69,217,214.67,216.7,210Z"/><path class="cls-42" d="M240.54,379.22l-12.69.13c1.78-4,6.91-5.86,6.77-11,4.12-1.84,4.22,1.59,4.74,3.86S239,377.07,240.54,379.22Z"/><path class="cls-43" d="M255.7,330.55c-.14-1.62-1.4-2.62-2.17-3.89-.76-2.51-.58-5.18-1.31-7.7l.44-.52c3.17,1.58,6.62,1,10,1.24C263.51,327.13,263.51,327.13,255.7,330.55Z"/><path class="cls-44" d="M213.53,343.49c-6.65,2.84-8.88,8.07-8.14,14.91-2.06-1.93.35-5.1-1.94-7,2.31-2.25,2.19-5.11,2-8-.88-2.89.4-4.82,2.77-6.28C211.67,337.86,213.58,339.86,213.53,343.49Z"/><path class="cls-45" d="M107.45,292.68c3,2,4.6,5.32,7,7.89l-10.89.06C103.55,297.34,102.64,293.63,107.45,292.68Z"/><path class="cls-46" d="M138.37,270.6l.81,1c2.49,1.4,3.65,3.7,4.29,6.35-2.32,1.3-4.67.58-7.07.27-3.82-.5-4.78-2.21-2.85-5.52A10.21,10.21,0,0,0,138.37,270.6Z"/><path class="cls-3" d="M138.63,363.45c-2.32-3.19-4.94-6-9-6.82-1.74,1.36-3.79,1.34-5.85,1.33-5.39.09-10.67-.11-14.13-5.22-2.52-3.71-1.93-6.33,1.83-8.07A67.63,67.63,0,0,0,128.17,346c6-.18,6.47-.56,6.88-6.37a14,14,0,0,1,.48-3.41,4.58,4.58,0,0,1,3.36-3c2.09.18,2.8,2.06,4,3.33,4.23,4.54,6.45,4.63,11,.32,1-.89,1.84-1.85,2.78-2.77a12,12,0,0,1,1.66-1.44,4.37,4.37,0,0,1,4.44-.54,4.59,4.59,0,0,1,2.35,4.08c-.14,3.11-.19,6.22-.11,9.32.11,4.14-1.35,7-5.73,7.78-1.82.75-4.07.11-5.64,1.71a3.93,3.93,0,0,0-.65,2.35c.09,6-1.08,7.25-7,6.83C143.56,364,141,364.31,138.63,363.45Z"/><path class="cls-47" d="M138.52,387.34c-5,.76-6.43-4.4-10-6.07-1.83,1.26-3.08,3.31-5.38,3.94a5.37,5.37,0,0,1-5.68-2.86c-1.53-1.25-2.41-3.07-3.83-4.42a.55.55,0,0,0-.1-.6c-1.61-7,.26-9.45,7.3-9.45,2.14,0,4.29.06,6.42.23a7.86,7.86,0,0,1,5.27,3c.65,2.48,2,.47,3.07.45a1.67,1.67,0,0,1,1.81-.08h0a6.16,6.16,0,0,0,1.18.71c2.12.09,4.17.79,6.32.68,4.27,2.09,4.6,3.59,1.87,8.45-.79.9-1.69,1.71-2.48,2.63C143,386.11,140.58,386.43,138.52,387.34Z"/><path class="cls-7" d="M128.5,369.4c-2.45,0-4.9.11-7.36.12-7.41.05-7.6.24-7.59,7.81-1.64-2.32-2.32-5.58-5.92-6-2.26-1-5.16.22-7.1-2a18.31,18.31,0,0,1-4.06-11.77c7.93-3.5,9.64-6,9-13.3.24-1.59.86-2.83,2.68-3,1.61,1,3.54,1.75,3.22,4.22-4.78,1.64-1.86,4.49-.67,6.46,2.89,4.78,7.83,4.75,12.69,4.53.38.91-.23,1.5-.65,2.18-2.58,4.12-2.24,5.11,2,7.58C126.14,367.1,128.55,366.85,128.5,369.4Z"/><path class="cls-48" d="M175.74,385.22l-1.17,1.62c-6.81,9.26-8.59,9.41-16.48,1.41a10,10,0,0,0-1.63-1.12c-2.28-1.83-2.66-4.1-1.07-6.44s4.08-3.06,6.88-2c3.08,1.83,6.21,1.64,9.37.19C176.23,379.82,176.79,380.68,175.74,385.22Z"/><path class="cls-49" d="M170.33,353.47l1.15,1.76c-.39,4.1-3,6.82-5.92,9.31-3.74,5.08-8.19,4.57-11.57-1.65-1.2-2.21-2.42-4.7-1.76-7.48C156.54,352.13,167.09,351,170.33,353.47Z"/><path class="cls-50" d="M162.58,379.43c-6.6-.16-7.67,1.18-6.11,7.7a7.82,7.82,0,0,1-.91.36c-2.69,1.6-4.39-.22-6-1.86-1.38-1.39-3-2.6-3.94-4.4,2-2.89,3.37-5.7-.89-7.89-.42-.11-.59-.26-.5-.47s.22-.35.34-.35c4.4-.08,8.81-.15,13.21-.26,4.66-.12,6.71,1.93,5.67,6.63C163.54,379.67,163.24,379.85,162.58,379.43Z"/><path class="cls-51" d="M106.52,344.54c1.65,7.61-3.08,13.78-10,13.08a1.2,1.2,0,0,0-.75-.57c-2.45-3.48-6.84-5.65-7.2-10.56.34-1.25.66-2.51,2-3.17.58-.33,1.31-.73,1.84-.38C96.79,345.93,101.58,345.82,106.52,344.54Z"/><path class="cls-52" d="M128.5,369.4c-.86-1.33-2.42-.83-3.59-1.39-6.93-3.27-7.38-6.65-1.47-11.47l6.14.09c.92,3.44.55,7.35,5.8,8.33,2,.37,1.9,4.13,2,6.55l-.9.84a3.12,3.12,0,0,1-3.83-.09Z"/><path class="cls-53" d="M152.54,355.5c-.1,4.85,3.1,7.78,6.26,10.72s4.56-.92,6.76-1.68c0,3.79-1.87,5.14-5.66,5-4.59-.16-9.17,1.6-13.78-.16-3.15-1.2-6.2-2.45-7.49-5.94,2.3-1.4,4.77-1,7.23-.73,5.29.64,6.19-.22,5.67-5.18-.15-1.42-.55-3,1-4A1.4,1.4,0,0,1,152.54,355.5Z"/><path class="cls-54" d="M183.47,388.34l1.05-1c2.66-1.48,5.33-2.92,7.95.07v0a16.17,16.17,0,0,1,0,8.94h0c-3.32,1.63-6.64,1.31-10,0l0,0C181.69,393.51,181.46,390.8,183.47,388.34Z"/><path class="cls-55" d="M145.63,381.23c1.94-.14,2.84,1.25,3.9,2.52,1.58,1.88,3.17,3.86,6,3.74a8,8,0,0,1-1.06,4.74,7.28,7.28,0,0,1-6,.07c-3.3,0-5-1.55-4.92-4.89.57-1.37-.4-2.74,0-4.12Z"/><path class="cls-56" d="M175.74,385.22c-.24-2.8-.63-5.48-4.29-5.74-.66.38-.95.19-.87-.56,1-3.23,3.95-3.94,6.62-4.36,3-.46,3.37,1.94,3.35,4.29C180.52,382.17,181.18,386,175.74,385.22Z"/><path class="cls-57" d="M170.58,378.92l.87.56a9.74,9.74,0,0,1-8.87-.05l.88-.54Z"/><path class="cls-58" d="M237.49,329.4c-4.62.82-9.37-.45-14,.9-1.09-.38-1.75-1.37-2.73-1.92-2.54-1.33-5.87-.68-8-3.13-1.39-4.1-.75-8.36-1.05-12.54.64-2,2.12-1.51,3.08-.63,4.36,4,8,2.8,11.46-1.2a3.17,3.17,0,0,1,1.77-.85c3,.94,6.09,1.9,9.36,1.6,1.44,3.85,4.07,5.63,8.32,5.07,2.44-.33,4.91-.08,6.89,1.74l-.22.22c-2.73,2.25-6,1.26-9,1.35-7.17.21-7.35.34-5.58,7.09A2.28,2.28,0,0,1,237.49,329.4Z"/><path class="cls-59" d="M237.45,311.63c-3.32,2.69-6.2,1.35-9-.95-2.25-3.35-6.18-5.42-7.37-9.59,1.07-2.21,3-3.16,5.29-3.68,4.72.2,9.59-1.32,14.13,1.16,3.14,2.19,2.58,4.9.92,7.59C240.25,308.08,238.79,309.82,237.45,311.63Z"/><path class="cls-60" d="M243.6,292.7c-.21,2-1.55,3.08-3.08,4a15.12,15.12,0,0,1-12.47-.37,7.2,7.2,0,0,1-1.89-5.26,8.86,8.86,0,0,1,.52-3.1,15.21,15.21,0,0,1,5.7-5.78,4.06,4.06,0,0,1,4.34,1.58c2.06,2.39,4.8,3.75,7.4,5.36A3.29,3.29,0,0,1,243.6,292.7Z"/><path class="cls-61" d="M228.47,295.76c3.93,1.43,8,1.18,12.05,1,0,.61,0,1.22,0,1.83h-15C225.2,296.29,226.67,295.86,228.47,295.76Z"/><path class="cls-62" d="M243.6,292.7c0-1.33-.08-2.65-.11-4-.25-.91.1-1.24,1-1,3.07.61,1.6,3.12,2,4.83Z"/><path class="cls-63" d="M228.47,295.76l-3,2.82-4.1,3c-1.23,1.55-3,1-4.57,1.13-4.46.42-5,1.09-4.07,5.55.23,1.11.73,2.2-.09,3.27,1.34,4.59.47,9.33,1,14-.83,4-4.37,3.52-7.05,3.8-3.14.33-3-2.9-4-4.79-3.48-4.17-8.2-5.32-13.52-3.14-2.27.92-4.45,2.09-6.67,3.15-2.89,1.09-3.31-1.22-3.9-3a18.52,18.52,0,0,1-.49-6.39c.1-4.08-1.64-6.18-5.9-6a10.7,10.7,0,0,1-4.87-.69c-2.64-2.85.57-4.68,1.21-7,.64-1.1,1-2.38,2.05-3.25a5.52,5.52,0,0,1,4.46-.44c1.67.55,2.79,1.92,4.22,2.83a20,20,0,0,1,3.06,3.24c2.15,2.39,4.36,2.95,6.5-.07a49.58,49.58,0,0,1,7.83-6.32,10.15,10.15,0,0,1,6.23-1.14,10.83,10.83,0,0,0,10.05-4c4.6-.32,6.92-4.85,11.08-6,2.26.51,2.41,2.69,3.35,4.23C227.45,292.36,227.51,294.16,228.47,295.76Z"/><path class="cls-64" d="M166.32,307.62h.49c11.94.2,11.93.2,12.67,11.89.14,2.12.13,4.39,2.92,5-.67.73-1.33,1.47-2,2.2-2.77,2.12-6,1.24-9,1.24-3.18,0-5.81.66-7.57,3.48-1.53,1.05-4.59-1.73-5.07,2l-1.19,1.11c-1.86-1.68-1.12-4.19-2-6.18a5.13,5.13,0,0,1-.34-2.84c1.43-2,2.84-4.09,4.8-5.46,4-2.83,5.24-6.35,3.7-10.93C164.09,307.79,164.63,306.73,166.32,307.62Z"/><path class="cls-65" d="M162.7,331.58c.76-4.12,3.22-5.54,7.34-5.1,3.43.36,6.91.19,10.37.25,3.8,3.44,3.34,6.72-.32,9.94-1.47,1.29-2.87,2.67-4.29,4-1.74.72-3.58.42-5.38.56a8.93,8.93,0,0,1-5.9-5.68l-2-3C162.19,332.13,162.25,331.82,162.7,331.58Z"/><path class="cls-66" d="M202.58,324.52c3.21,4.75,5,4.9,11.07,1a22.6,22.6,0,0,1,8.81,2.1c-1.14,1.23-2.65,1.16-4.15,1.22-9.16.33-9.28.45-9.94,8.85l-2.94,5.77a6.23,6.23,0,0,1-1.9-5.33A60.79,60.79,0,0,0,202.58,324.52Z"/><path class="cls-67" d="M171.74,342.56l-1.23-2c1.8-1.44,3.53-.11,5.29.15A3.77,3.77,0,0,1,171.74,342.56Z"/><path class="cls-68" d="M241.37,259.76c-1.77-1.94-3.49-3.94-5.33-5.81a5.31,5.31,0,0,1-1.12-6.38c1.13-2.28,3.3-2.78,5.94-2.18a29.81,29.81,0,0,0,6.89.4c2.1,0,4,.22,5.15,2.22,1.26,2.25.09,4.13-1.15,5.93-1.1,1.6-3.14,2.54-3.34,4.76l-.12.68c-1.49,1.9-3.24,3.32-5.87,3.11a2.07,2.07,0,0,1-1.43-1.42A2,2,0,0,1,241.37,259.76Z"/><path class="cls-69" d="M241.37,259.76l0,1.17a4.92,4.92,0,0,1-3.48,2.83c-2.38.46-4.74.75-6.82-1a2.7,2.7,0,0,1-.63-3c.35-.67.7-1.34,1.06-2C234.9,258,238.34,257.81,241.37,259.76Z"/><path class="cls-70" d="M254.5,258.84c.28,2.1-.6,4-1.12,5.94-1.7.5-2.56-.64-3.45-1.74-.59-1.39-1.93-2.51-1.59-4.25l.07-.09Z"/><path class="cls-71" d="M208.37,337.68c-3.11-7.36-.57-10.79,7.69-10.39l6.4.32,1.08,2.69a7.32,7.32,0,0,0-.79,4.36c-.57,7.25-1.71,8.34-9.22,8.83A16,16,0,0,0,208.37,337.68Z"/><path class="cls-72" d="M210.29,262.11c-.88-7.21,5.6-12.57,12.26-10.08a4.18,4.18,0,0,1,2.9,3.67c.16,1.43-.36,3,1.05,4.16,1.56,1.63,1.38,3.67,1.33,5.68-.36,4.81-4,5.53-7.72,6.07a7.25,7.25,0,0,1-1.6.28,5.06,5.06,0,0,1-4.3-1.6A35,35,0,0,0,210.29,262.11Z"/><path class="cls-73" d="M196.66,262l2.84-.08.14.46c1.9.41,3.72,1.26,5.57,1,.84.09.29-.7.26,0,0,.05-.18.09-.49,0-.8-.2-2,.58-2.24-1a14.34,14.34,0,0,1,5.87-.11c4.34,1.3,6.11,4.19,5.4,8.63-2.55,3.77-4.32,8.54-10.27,7.93-3.16-1.06-4.57-4.51-7.7-5.62a4.75,4.75,0,0,1-1.55-2.71C194.58,267.43,194.44,264.39,196.66,262Z"/><path class="cls-74" d="M226.62,265.72l-.12-5.86,4,0c.34.67.69,1.33,1,2C230.27,263.62,229.19,265.59,226.62,265.72Z"/><path class="cls-75" d="M213.48,270.67c1.07-4.36-2.11-6.3-4.87-8.48l1.68-.09c4,1.14,4.42,4.37,4.54,7.77a1,1,0,0,1-.26,1.09A1,1,0,0,1,213.48,270.67Z"/><path class="cls-75" d="M202.74,262.3l3.61.85c-2.33.43-4.74,1.47-6.72-.82Z"/><path class="cls-4" d="M195.52,270.75l1,1.87c.11,5-.6,10-1,15.05a6.14,6.14,0,0,1-2.71,4.5c-2.76,1.43-5.76.9-8.68,1a11.62,11.62,0,0,0-5.68,1.29,9.46,9.46,0,0,1-2.3,1c-9.63.69-14.44-7.45-14.87-14.94-.12-2.16.29-4.29,2.28-5.69,2.18-3.8,6.26-5.11,9.64-7.35,2.23-1.48,3.62.54,5.3,1.33,2.06-.3,2.82,1.47,3.82,2.6,2.65,3,5.28,3.56,8.46.78C192.1,271,193.41,269.35,195.52,270.75Z"/><path class="cls-76" d="M144.43,286.58c1.64-1,1.22-4.06,4-4a6.69,6.69,0,0,1,2.81-2c4.23-1.57,5.8-5.64,8.32-8.8l3-.05a2.23,2.23,0,0,1,.37,2.34c-3,7.76-.39,13.82,5.53,19a10.7,10.7,0,0,1,2.51,2.38,1.88,1.88,0,0,1-.93,2.55,40.67,40.67,0,0,1-6.62-.3,11.29,11.29,0,0,1-1.4-.31c-5.72-2.24-9.1,1.43-12.54,4.95a7.35,7.35,0,0,1-2.21.57c-2.06,0-4.15.3-6.12-.57-1.35-3.51-3.56-6.83-2.56-10.91C140,289.26,141.55,287.13,144.43,286.58Z"/><path class="cls-77" d="M195.52,270.75c-.48.12-1.12.08-1.42.38-8.17,8-9.62,4.67-15.54-2.37-.76-2.54-1.39-5.1-.85-7.78,3.9-.84,8.12,1.09,11.85-1.3,2.62,0,5.1.35,7.09,2.27Q196.1,266.35,195.52,270.75Z"/><path class="cls-78" d="M170.5,295.69c-10-8-11.41-12.11-8-23.89,1.25.67,1,1.91,1.11,3-2.28,11.87.53,16.3,12.68,20,1.81,1.9,3.14,4,2.53,6.77a5,5,0,0,1-3.32-2.89C174.27,297,171.78,297.33,170.5,295.69Z"/><path class="cls-78" d="M159.53,271.85c-.56,5.07-3.47,8.19-8.2,9.79.15-3.8,4.18-5,5.42-8.1a3.44,3.44,0,0,1,2-1.75A5.25,5.25,0,0,1,159.53,271.85Z"/><path class="cls-79" d="M158.74,271.79,157.61,274c-1.43-2-2.13-3.89.86-5.17l.79.05C159.08,269.85,158.91,270.82,158.74,271.79Z"/><path class="cls-80" d="M99.54,319.64c-.32,0-.65-.05-1-.06-1.71-4.38-1.32-8.18,3-10.9a23.6,23.6,0,0,1,7,7.83Q108,323.62,99.54,319.64Z"/><path class="cls-47" d="M237.49,329.4c-4.89-10.28-4.49-10.92,7.1-10.89,2.62,0,5.23.1,7.85.15,2.44,2.39,2.42,5.11,1.09,8-4,2.14-6,7-10.89,7.79A7.12,7.12,0,0,0,237.49,329.4Z"/><path class="cls-81" d="M158.54,352.15c4.09-.2,8.2-.31,11.83-2.56,0,1.29,0,2.59,0,3.88-6.17-1.42-12,.14-17.79,2l0-2C154.39,352.3,156.55,352.59,158.54,352.15Z"/><path class="cls-82" d="M244.49,287.7l-1,1c-1.93,1.6-3.19.34-4.52-1-1.93-1.92-3.44-4.36-6.29-5.16a2.56,2.56,0,0,1-1.09-1.23c-1.22-4.41-.05-7.68,4.51-9.32a9.26,9.26,0,0,1,3.3-.51,11.36,11.36,0,0,1,1.65.14c1.44.25,2.88.48,4.32.7,5.35.84,6.68,2.35,7.12,7.93a5.53,5.53,0,0,1-3.27,3.41C248.49,286,246.18,286.5,244.49,287.7Z"/><path class="cls-83" d="M249.22,283.7l2.37-3.08c.73-.65.14-2.65,2.1-2.05l1.68,1.37A9.42,9.42,0,0,1,249.22,283.7Z"/><path class="cls-7" d="M99.54,319.64c3-1,7.58,2.27,9.09-3.13,7.08-.81,12.74-8.54,10.79-14.73l2.91-3.81c3.32-1.77,4.32-6.09,8.11-7.33,2.89,1.39,5.84,2.28,9,1.06a5,5,0,0,0,.89,4.86,3.76,3.76,0,0,1,.21,4.87,2.78,2.78,0,0,1-1.36,1.5c-3.12,1.65-2.08,3.86-1,6.26,1,2.12,3.67,3.59,2.62,6.52a5.87,5.87,0,0,1-4.53,2,8.77,8.77,0,0,1-1.45-.11,9.55,9.55,0,0,1-1.4-.35c-6.47-1.28-11.68,1.55-17.35,4.22-5.89,2.77-9.74,6.27-10.91,12.61-1.07.33-2,.34-2.67-.79-4.47-1.62-5.91-4.85-4.1-9.39A9.5,9.5,0,0,0,99.54,319.64Z"/><path class="cls-84" d="M139.48,291.7c-3.51,3.84-6.49,3.26-9-1.06,2-5.75,1-7.62-4.81-9.12,5.25-4.22,11.13-1.73,16.65-1.17,3.36.34,2.05,3.89,2.15,6.23Z"/><path class="cls-85" d="M253.69,278.57l-2.1,2.05c.22-4.79-2.18-7-6.87-6.93a7,7,0,0,1-4.24-1.12,3.51,3.51,0,0,1,.06-5.09c2.6-1.69,6.3-.55,8.5-3.27a3.4,3.4,0,0,1,1.53-1.4l2.81,2-.72,2.27c-.39.59-.77,1.18-1.15,1.78-.39,1.36-.85,2.71-.09,4.1Z"/><path class="cls-82" d="M251.42,272.93c-1.11-1.39-1.35-2.77.09-4.1C252.45,270.21,251.51,271.56,251.42,272.93Z"/><path class="cls-86" d="M158.47,268.83c-1.59,1.51-.79,3.41-.86,5.17-1,3.44-4.6,4.76-6.28,7.64l-2.92,1L143.47,278c-1.89-1.8-3.62-3.71-4.29-6.34.08-3.82,2.12-5.26,5.81-4.94a32,32,0,0,0,4.47-.19C152.47,267.24,156.07,265.74,158.47,268.83Z"/><path class="cls-87" d="M106.52,344.54c-4.07,2.91-8.13,4.21-12.46.35-.92-.83-2.37-1.06-3.58-1.57.38-1.84-.55-3.48-.8-5.22-.34-2.26.73-3.72,3-4.24,5,.85,10.08-.53,15,.67a3.72,3.72,0,0,1,1.27,1,5.29,5.29,0,0,1,0,5.42l-.63.51A3.25,3.25,0,0,0,106.52,344.54Z"/><path class="cls-88" d="M107.75,335.43c-4.87-2.05-10.22.49-15.08-1.57l9.87-.61,3,.1C107.12,333.21,107.8,333.94,107.75,335.43Z"/><path class="cls-4" d="M111.42,345.55c-1-1.4-3-2-3-4.14v0c1.2-1.87.5-3.9.49-5.87-4.65-5.39-4.32-7.83,1.67-11.74,3.67-2.4,7.77-4,11.53-6.33,3.42-2.08,8.15-2.16,12.42-.9h0c-.26,3-2.95,2.51-4.73,3.26-4,1.67-4.79,3.7-2.3,7.13,1.79,2.46,3.2,5.43,6.48,6.47,1.07.55,2.2,1,2.57,2.34,0,12,2.06,11.68-11.68,11.64C120.31,347.43,115.64,348,111.42,345.55Z"/><path class="cls-89" d="M139.41,333.85c2-3.44,5.74-5.13,8-8.24,3.67-2.53,6.16.55,9,1.89,2,2.1.74,4.69,1.08,7.05a6.48,6.48,0,0,1-.56.81C149.16,344,145.72,343.74,139.41,333.85Z"/><path class="cls-90" d="M162.7,331.58a6.17,6.17,0,0,1-.2.95,6.33,6.33,0,0,0-3.77.92c-.08-1.27-.16-2.53-.26-4A5.72,5.72,0,0,1,162.7,331.58Z"/><path class="cls-91" d="M212.68,311.53c-.17-.46-.32-.93-.52-1.38-3.08-6.87-1.59-9.17,5.79-8.87,1.16,0,2.31.2,3.46.3,2.84,2.65,6.57,4.63,7.05,9.1a4.91,4.91,0,0,0-.81.53C220.37,318.18,220,318.19,212.68,311.53Z"/><path class="cls-92" d="M227.27,290.58c-1.59-.89-2.79-2.06-2.87-4,.07-1.33,1-1.52,2.06-1.55a2.62,2.62,0,0,1,1.31.65,2,2,0,0,1-.17,2.09Z"/><path class="cls-93" d="M227.6,287.73c0-.7,0-1.4,0-2.09.9-2.2,2-4.18,4.89-3.79a6.18,6.18,0,0,0,.23.73A18.69,18.69,0,0,1,227.6,287.73Z"/><path class="cls-94" d="M147.33,302.06l2.15-.42c3.57-3.75,7.47-6.63,13.11-5l-.06,0c2.62,1.31,7.55-.55,7,5.09-.28,2.4-2.35,3.85-3.22,5.95-1.25.09-1.76.88-1.9,2a3.84,3.84,0,0,1-4.24,1.83c-4.24-1-7.73.51-11,2.91-4.61,3.65-4.85,3.59-9.82-2.46-3.91-4.77-4-6.56-.33-9.71C141.79,302.07,144.57,302.32,147.33,302.06Z"/><path class="cls-95" d="M192.51,291.56c2.15-2.84,2.21-6.14,2-9.46a15,15,0,0,1,2.06-9.48c3.88-.29,4.51,3.71,7,5.25,1.42.67,3.58.09,4.07,2.37a15.78,15.78,0,0,0,3.81,7.2c1.31,1.37,2.8,2.82,2,5.09-1.62,4.36-4.84,5.67-9.32,5.24-2.56-.24-5.29-.55-7.74.85A15.57,15.57,0,0,1,192.51,291.56Z"/><path class="cls-96" d="M213.48,292.53c-1.87-4.18-6.84-6.54-6.93-11.75,1.74-6,7.08-4.23,11.16-5.21a18.36,18.36,0,0,1,5.79,1.16c4,1.56,4.92,4.28,2.89,8.57l-2,1.25a18,18,0,0,0-5,4.62C217.79,293.18,215.65,293,213.48,292.53Z"/><path class="cls-86" d="M192.51,291.56c3,1.44,3.39,4.28,3.91,7.06l-7,6c-4.36,2.63-5.76,2.44-8.46-1.71-1.9-2.93-5.17-5.44-3.61-9.68,2.63-3,6.15-1.18,9.25-1.59A50.17,50.17,0,0,1,192.51,291.56Z"/><path class="cls-97" d="M177.37,293.27c-.23,4.77,3.09,7.83,5.62,11.19,1.82,2.43,4.28.45,6.45.2-2.16,4.6-5,3-7.66.66a26.8,26.8,0,0,1-3-3.76c-1.07-2.18-2.55-4.19-2.52-6.77C176.66,294.28,177,293.77,177.37,293.27Z"/><path class="cls-98" d="M170.5,295.69c2.27,0,4.72-.31,5,3l-5.19,0c-.76,0-1.23-.24-.54-1Z"/><path class="cls-99" d="M169.78,297.67l.54,1c-.06,1,.18,2.15-.78,3-.75-3.87-4.55-3.56-7-5.09C165,296.6,167.6,295.77,169.78,297.67Z"/><path class="cls-100" d="M148.49,313.63c3.33-3,6.75-5.26,11.63-3.39,1.18.45,2.85-.37,4.3-.61,1.42,2,2.59,4.14,1,6.37-2.66,3.7-5.65,7.15-9.72,9.43-3.86-1.16-5.88-4.33-8.08-7.31A3.56,3.56,0,0,1,148.49,313.63Z"/><path class="cls-101" d="M250.57,262.81l-.09,2a23.65,23.65,0,0,1-9.22,2c-1.23-2-1-3.69,1.06-5,2.37-.33,3.92-2.24,6-3.08C249.47,259.92,250.89,260.89,250.57,262.81Z"/><path class="cls-102" d="M242.32,261.87a9,9,0,0,0-.74,4.88c.3.26.39.49.27.71s-.24.32-.36.32c-1.59,1.33-.79,3.17-1,4.79l-1-.07c-3.19-2.92-1.28-6.39-1.05-9.69l3-1.88Z"/><path class="cls-103" d="M238.38,262.81c1.93,3.06.09,6.53,1.05,9.69l-2.91.4c-4.24-.53-8.44-1.32-12.75-.83a4.23,4.23,0,0,1-4-1.34c2.38-1.56,6.86-.24,6.89-5a10.24,10.24,0,0,1,4.89-3.89C233.58,263.66,236.1,262.44,238.38,262.81Z"/><path class="cls-104" d="M219.73,270.73c4,.54,8.05-.9,12.11-.06,1.8.38,3.54.59,4.68,2.23-4.39,1.61-4.39,5.21-4.08,9l-4.89,3.79-1.16-.34c.08-6.36.08-6.36-8.88-8.65a3.19,3.19,0,0,1-1.46-2.88,3.89,3.89,0,0,1,2.58-2.9Z"/><path class="cls-105" d="M218.63,270.87l-2.1,3c-2.25-.06-3-1.07-2.1-3.19a5.38,5.38,0,0,1,.4-.84Z"/><path class="cls-106" d="M214.43,270.71a3.81,3.81,0,0,0,2.1,3.19c.32.92.65,1.84,1,2.75-1.92.57-3.83,1.29-5.86,1-2.67-.42-3.86,1.37-5.1,3.16.1-2.1-2.18-1.76-3-2.91,5.49.59,6.5-5,9.93-7.2A2.17,2.17,0,0,0,214.43,270.71Z"/><path class="cls-99" d="M162.59,296.62c-3.57,1.17-8.24-.28-10.39,4.44-.22.5-1.78.4-2.72.58C154.42,295.05,155.33,294.71,162.59,296.62Z"/><path class="cls-107" d="M147.33,302.06c-2.86,1.25-5.87.3-8.8.59-.29-.18-.39-.35-.3-.53s.2-.26.3-.26l2.05-.43Z"/><path class="cls-108" d="M134.52,316.6c-6-.08-11.93-.31-16.61,4.63-1,1-3.08,1-4.6,1.61-7.09,2.81-8.23,6.62-3.84,12.77-.35.42-.69.44-1,0a2.07,2.07,0,0,0-.69-.18l-2.16-2.08c-1.49-3.77-.43-7.22,2.88-8.94,7.27-3.76,13.7-9.93,22.89-8.83C132.5,315.71,133.69,315.55,134.52,316.6Z"/><path class="cls-108" d="M135.56,316.61l1.8,2.72-1,.14c-3.38.5-7.84-1.39-9.62,2.89-1.69,4.07,2.48,6.28,4.35,9.16a30.57,30.57,0,0,0,2.51,3c-5-1.39-6.94-5.83-8.74-9.82-1.39-3.09,1.4-5.06,4.25-6,1.84-.61,3.86-.68,5.39-2.07Z"/><path class="cls-109" d="M138.53,301.86v.79c-3.56,4.13-.16,6.83,2.16,9.55,2.08,2.43,4.46,5,7.8,1.43,0,1.37-.83,2.72-.07,4.1-3.17,1.1-5.67,0-7.77-2.38-1.38-2.23-2.83-4.41-4.13-6.69C134.88,305.77,135.07,303.31,138.53,301.86Z"/><path class="cls-110" d="M241.49,267.78l.09-1a13.45,13.45,0,0,1,8.9-1.95C248.19,267.89,244.82,267.77,241.49,267.78Z"/><path class="cls-7" d="M108.44,335.61h1c-.13,2,1,4.19-1.06,5.83Z"/><path class="cls-111" d="M136.55,335.81l-2.92-1.32c-3.43-1.73-5.13-5.1-7.2-8s-.45-6.5,3.09-7.27a39.63,39.63,0,0,1,7.85-1c7,.12,8.56,1.09,10.83,6.81-1.27,4.58-4.94,6.8-8.79,8.85Z"/><path class="cls-112" d="M214.52,366.42c5.59-2,11.38-.79,17.08-1.09q1.52,1.51,3,3c1.71,2.42.13,4.3-1.16,6.11a46.34,46.34,0,0,1-5,5.28,7.29,7.29,0,0,1-3.7,2.2,2.43,2.43,0,0,1-2.3-1.45c-1.68-1.83-3.28-3.74-5.06-5.46C214.88,372.64,214.22,369.71,214.52,366.42Z"/><path class="cls-113" d="M68.87,179.28a43.72,43.72,0,0,1,8-.67c4.46,0,7.34.81,9.36,2.64a8.06,8.06,0,0,1,2.54,6.14,8.49,8.49,0,0,1-6.09,8.26v.14c2.49.87,4,3.17,4.75,6.53,1,4.52,1.82,7.64,2.49,8.88h0a5.87,5.87,0,0,1-5.71-4.47c-.24-1-.49-2-.77-3.25-1-4.47-2.68-6.15-6.48-6.29H73.05v14h0A4.18,4.18,0,0,1,68.87,207ZM73.05,194h4.27c4.46,0,7.3-2.45,7.3-6.15,0-4.17-3-6-7.44-6a17.34,17.34,0,0,0-4.13.38Z"/><path class="cls-113" d="M108,211.2l-.34-2.92h-.14a8.66,8.66,0,0,1-7.1,3.45c-4.71,0-7.11-3.31-7.11-6.67,0-5.62,5-8.69,14-8.64v-.48c0-1.92-.53-5.38-5.28-5.38a11.54,11.54,0,0,0-6,1.73l-1-2.78a14.42,14.42,0,0,1,7.63-2.07c7.11,0,8.84,4.85,8.84,9.51v8.69c0,.66,0,1.33,0,2A3.47,3.47,0,0,1,108,211.2Zm-.62-11.85c-4.61-.1-9.84.72-9.84,5.23a3.73,3.73,0,0,0,4,4,5.8,5.8,0,0,0,5.62-3.89,4.51,4.51,0,0,0,.24-1.34Z"/><path class="cls-114" d="M121.72,211.2a3.49,3.49,0,0,1-3.49-3.6c0-.8,0-1.62,0-2.4V181.3a4.18,4.18,0,0,1,4.18-4.18h0v14.59h.09a8.66,8.66,0,0,1,7.92-4.27c5.77,0,9.85,4.8,9.8,11.86,0,8.3-5.24,12.43-10.42,12.43a8.27,8.27,0,0,1-7.78-4.37h-.14l-.19,3.84Zm.72-9.31a7.63,7.63,0,0,0,.19,1.54,6.51,6.51,0,0,0,6.34,4.94c4.41,0,7.05-3.6,7.05-8.93,0-4.65-2.4-8.64-6.91-8.64a6.73,6.73,0,0,0-6.43,5.19,8,8,0,0,0-.24,1.72Z"/><path class="cls-114" d="M137.69,213.57c.09-1.58-.12-6.3-.12-8.37V181.3a4.18,4.18,0,0,1,4.18-4.18h0v14.59h.1a8.64,8.64,0,0,1,7.92-4.27c5.76,0,9.84,4.8,9.79,11.86,0,8.3-5.23,12.43-10.42,12.43a8.25,8.25,0,0,1-7.77-4.37h-.15L141,211.2Zm4.06-11.68a8.42,8.42,0,0,0,.19,1.54,6.52,6.52,0,0,0,6.34,4.94c4.41,0,7.05-3.6,7.05-8.93,0-4.65-2.4-8.64-6.91-8.64A6.73,6.73,0,0,0,142,196a8,8,0,0,0-.24,1.72Z"/><path class="cls-113" d="M169.59,181.44a2.62,2.62,0,0,1-5.23,0A2.57,2.57,0,0,1,167,178.8,2.51,2.51,0,0,1,169.59,181.44ZM164.88,207V188h4.23V211.2h0A4.23,4.23,0,0,1,164.88,207Z"/><path class="cls-113" d="M181.2,181.3V188h6.05v3.22H181.2v12.52c0,2.89.82,4.52,3.17,4.52a9.55,9.55,0,0,0,2.45-.29l.19,3.17a10.45,10.45,0,0,1-3.74.57,5.86,5.86,0,0,1-4.56-1.77c-1.2-1.25-1.63-3.31-1.63-6V191.19h-3.6V188h3.6v-1.3a5.56,5.56,0,0,1,4.12-5.37Z"/><path class="cls-113" d="M67.24,246.62a3.21,3.21,0,0,1,4.08-2.12,14.67,14.67,0,0,0,4.46.73c4.28,0,6.77-2.26,6.77-5.52,0-3-1.73-4.76-6.1-6.44-5.28-1.87-8.54-4.6-8.54-9.16,0-5,4.18-8.79,10.47-8.79a14.77,14.77,0,0,1,7.15,1.58h0a3.44,3.44,0,0,1-4.07,2.28,12.9,12.9,0,0,0-3.23-.4c-4.42,0-6.1,2.64-6.1,4.85,0,3,2,4.51,6.44,6.24,5.47,2.11,8.25,4.75,8.25,9.5,0,5-3.69,9.31-11.33,9.31a16.72,16.72,0,0,1-8.25-2.06Z"/><path class="cls-113" d="M93.74,215.85v13.54H108v-9.7a3.84,3.84,0,0,1,3.84-3.84h0v28.51A3.84,3.84,0,0,1,108,248.2h0V233H93.74V244.4a3.8,3.8,0,0,1-3.8,3.8h0V219.65a3.8,3.8,0,0,1,3.8-3.8Z"/><path class="cls-114" d="M140.25,221.32c0,8.59-6,12.34-11.57,12.34-6.29,0-11.14-4.61-11.14-11.95,0-7.78,5.09-12.34,11.52-12.34C135.73,209.37,140.25,214.22,140.25,221.32Zm-18.44.24c0,5.09,2.93,8.93,7.06,8.93s7.06-3.79,7.06-9c0-3.94-2-8.93-7-8.93S121.81,217.15,121.81,221.56Z"/><path class="cls-114" d="M137.57,217.48c0-3,.27-5.37.17-7.58l3.55-2.9.08,6.88h.09a9.15,9.15,0,0,1,8.26-4.51c5.61,0,9.84,4.75,9.84,11.81,0,8.35-5.09,12.48-10.56,12.48a8.13,8.13,0,0,1-7.15-3.65h-.1v12.63h0a4.18,4.18,0,0,1-4.18-4.18Zm4.18,6.19a10.06,10.06,0,0,0,.19,1.73,6.52,6.52,0,0,0,6.34,4.95c4.46,0,7.05-3.65,7.05-9,0-4.66-2.44-8.64-6.91-8.64A6.73,6.73,0,0,0,142,218a6.59,6.59,0,0,0-.29,1.73Z"/></g></g></svg>