<svg xmlns="http://www.w3.org/2000/svg" viewBox="0 0 381.67 555.82"><defs><style>.cls-1{fill:#bcbcbb;}.cls-2{fill:#fff;}.cls-3{fill:#241f20;}.cls-4{fill:#1a8d45;}.cls-5{fill:#41ad4e;}.cls-6{fill:#fefefe;}.cls-7{fill:#fdfdfd;}.cls-8{fill:#41a169;}.cls-9{fill:#f2f1f1;}.cls-10{fill:#f4f3f2;}</style></defs><g id="Слой_2" data-name="Слой 2"><g id="Слой_1-2" data-name="Слой 1"><path class="cls-1" d="M381.59.87q0,274,.08,548c0,5.64-.64,6.91-3.47,6.91q-187.36-.24-374.74,0c-2.82,0-3.46-1.27-3.46-6.91q.14-274,.07-548C1.38-.52,2.79.17,4.14.17Q190.83.11,377.52.17C378.88.17,380.29-.52,381.59.87Z"/><path class="cls-2" d="M344.83,345.25c-.23-5-.15-10,0-14.94.06-2.64-.66-4.2-3.62-3.91-2.63.26-3.39-1.07-3.47-3.55-.11-3.26,1.51-7.31-.87-9.57s-6.37-.63-9.65-.78c-2.18-.1-3.44-.62-3.43-3.1s1.5-2.95,3.58-2.93c4,0,8-.19,12,.07,3.6.23,4.65-1.22,4.49-4.62a135,135,0,0,1,0-13.94c.21-3.59-1.24-4.53-4.64-4.48-11,.17-22,.27-33,0-4.75-.13-7.41.74-6.46,6.15.62,3.56-1.12,3.51-4,2.85-10.07-2.28-19.53-1.42-27.06,6.71-1.42,1.53-2.44,2.21-4.43.43-5-4.47-10.89-7.39-19.17-8.48,9.85-5.85,17.94-11.52,26.74-15.65S285,265,286.26,255.86a21.66,21.66,0,0,1,1.08-3.31q7.32-22.44,14.62-44.9c.35-1.05,1.37-2.3.1-3.12-.6-.39-1.91,0-2.78.36-3.84,1.58-7.62,3.28-11.43,4.92-11.1,4.78-22.31,9.31-33.21,14.47-1.27.63-2.93,1.43-4.92,2.34-2.47,1.13-3.68,1.61-8,3.42l-6.37,2.68-8.28,3.68h0c-4.46,2.35-7.32.48-10.55-2.42-12.56-11.3-25-22.72-37.93-33.61-3.15-2.66-5.87-6-9.38-8.4l-1.79-1.13-.35-.2a1.51,1.51,0,0,0-1.14-.07,1.57,1.57,0,0,0-1,1.5v.24l.14,3.95c.16,3.38.41,6.68.52,10,.71,21.82,2.37,43.59,3,65.39.21,6.74.82,12,8.15,14.06.16.05.18.55.31,1-2.3,2.24-5.75,3.56-7.1,6.68-2.38,5.55-6.63,6.44-12.1,6.23-9.4-.35-9.41-.1-10,9.32,0,.33,0,.67,0,1,0,2-1.16,2.52-2.91,2.52s-3-.4-3-2.42a56.62,56.62,0,0,1,0-6c.33-3.42-.91-4.91-4.49-4.59a15.05,15.05,0,0,1-9.78-2.38c-13-8.11-26.45-7.48-39.64-.15-2.34,1.3-4,.8-6-.35a34.72,34.72,0,0,0-21-5.08c-8.8.63-17.51,6.31-20,14.12-2.78,8.66-1.79,16.71,5.6,23.07C48,329.83,49.3,331,51,332.52c-2.4,1.18-4.23.81-6,.85-8.84.19-8.13-1.58-8.16,8.32,0,.82-.24,1.93.19,2.43,2.08,2.44-1.18,5.8,2.32,8.44,10.6,8,31,9.72,40.18-1.44,1.47-1.79,2.84-1.85,4.53-.11a22.46,22.46,0,0,0,10.67,6.12c5.77,1.5,11.5,2.9,17.6,1.3,2.66-.7,6-.8,5.51,3.82-.25,2.49,1.27,3.06,3.44,3,5.66-.06,11.33-.12,17,0,3,.07,3.61-1.42,3.57-4-.09-7.13,0-14.27,0-21.41,0-2.34.24-4.42,3.31-4.47s2.66,2.32,2.67,4.22c0,7.14.15,14.28,0,21.41-.09,3.3,1.11,4.38,4.34,4.26,5.33-.2,10.66-.15,16,0,2.83.07,3.83-1.06,3.76-3.82-.14-4.81-.1-9.63,0-14.44,0-1.39-.81-3.29.86-4.06,1.43-.65,2.2,1.14,3.23,1.86,10.65,7.46,26.33,7,36.1-1.4,2.77-2.39,3.4-1.38,4.94,1.09,9.39,15.07,27.24,19.08,42.45,9.58,2.27-1.42,3.84-1.42,6.21,0,11.87,7.26,26.92,6.74,37.38-2.69a8.51,8.51,0,0,1,6.33-2.15c10.33.06,20.66-.06,31,.08C343.44,349.42,345,348.7,344.83,345.25Z"/><path class="cls-3" d="M74.16,326.41c.64,2.5,2.41,4.17,2.77,6.54,1.16,7.87-2.86,14.33-10.62,16.09A27.23,27.23,0,0,1,51,348.19c-1.89-.66-3.61-1.21-2.53-4.18s2.47-1.56,4.1-1a21.35,21.35,0,0,0,10.29,1.32c4-.52,7-2.53,7.74-6.61a7.55,7.55,0,0,0-4.29-8.69c-2.5-1.28-5.09-2.39-7.65-3.56-7.51-3.42-10.67-8.07-9.78-14.41.83-6,5.85-10.05,13.52-11.11a24.94,24.94,0,0,1,9.83,1.06c2.08.55,3,1.31,2.12,3.85-.85,2.36-1.89,2.1-3.57,1.37a17.27,17.27,0,0,0-9.33-.83,6.89,6.89,0,0,0-6.05,5.18c-.94,3.09.24,5.55,2.6,7.46s5,3.27,8.19,3.08a29.69,29.69,0,0,1,5,0c7.09.79,11.89.11,14.92-8.55,4.71-13.45,21.82-14.45,31.55-11.38,2.24.7,1.55,1.87,1.26,3.39-.34,1.76-1.21,2.29-2.76,1.74a24.67,24.67,0,0,0-11.34-.92,16.83,16.83,0,0,0-14.66,13c-.42,1.9-.17,2.74,2,2.72q16.24-.1,32.48,0c2.16,0,3-.79,2.91-2.92-.11-2.32,0-4.65,0-7,0-2-.37-3.85,2.88-3.85s3.38,1.33,3.4,3.86c.1,9.85.18,9.85,10.22,9.85.5,0,1,0,1.5,0,3.63-.12,8.13,1,10.65-.72s.8-6.48.84-9.89c0-2.48.94-3,3.23-3.06,2.54-.05,3.71.62,3.44,3.33-.19,2,.21,4-.08,6-.63,4.09,1.42,4.59,4.84,4.49,2.65-.08,3.46-.79,3.27-3.42a28.16,28.16,0,0,1,1-10.34c3.38-11.12,12.84-17.83,23.51-16.49,11.18,1.41,18.92,10,19.54,21.62.08,1.49-.13,3,.08,4.48s-1.42,3.86,1.89,4.07c2.55.16,3.61-.51,4.27-3.33,3-13,13.72-20,26.37-17.41,7.89,1.61,12.78,6.66,15.45,14,2.61,7.15,2.56,7.16,10.71,6.33-3.27-5.77-3.6-11.4,1.19-16.45,4.26-4.48,13.53-5.76,20.17-3.22,1.95.74,2.51,1.51,1.94,3.58-.62,2.3-1.74,2.45-3.6,1.62-3-1.34-6.16-1.24-9.31-.86s-5.35,2.06-6.09,5.07-.06,5.87,2.83,7.86a13.74,13.74,0,0,0,8.32,2.82c4.66-.13,9.34-.26,14,0,3.74.23,5.29-.63,5.06-4.79-.39-7,0-13.95-.17-20.91-.08-2.91.49-4.14,3.77-4,6.49.27,13,.11,19.49.06,1.84,0,3.19.05,3.2,2.52,0,2.32-1,2.77-3,2.73-4.49-.08-9,.08-13.49-.07-2.42-.07-3.67.4-3.58,3.22.18,6,.17,12,0,17.93-.08,2.74,1,3.47,3.54,3.27a48.47,48.47,0,0,1,6.49,0c1.91.11,4.5-1,4.44,2.78-.06,3.56-2.49,2.28-4.18,2.43a24,24,0,0,1-5.49,0c-4-.61-5.08,1-4.85,4.86.16,2.73.8,3.82,3.7,3.7,4.82-.21,9.65,0,14.48-.07,1.89,0,3.2.21,3.18,2.63s-1,2.77-3.07,2.75c-7.16-.08-14.33-.11-21.49,0-2.45,0-3.33-.89-3.05-3.2a6.68,6.68,0,0,0,0-1c-.17-10.41-.17-10.41-11.21-9.32,4.12,8.35,3.64,14.27-1.54,18.88-5,4.45-17.32,5.33-23.2,2-2.33-1.31-1.21-2.76-.88-4.17.56-2.39,2.09-1.3,3.38-.69a19,19,0,0,0,10.69,1.58c3.7-.48,6.78-2,7.6-6s-.39-7.18-4.07-9.29c-2.77-1.59-5.52-2.92-8.89-2.65a44.48,44.48,0,0,1-8.48,0c-4.79-.55-7.07.45-7.95,6.07-1.69,10.79-11,17.6-21.74,17.39-10.6-.2-18.79-7.55-21-18.5-.34-1.74.83-4.68-2.62-4.89-2.86-.18-5.08-.12-6.69,3.34-3.56,7.69-10.46,10.84-18.65,11s-14.37-3.49-18.62-10.4c-2-3.26-6.87-5.14-10.21-4-1.94.68-1.14,2.18-1.15,3.32-.08,7.13,0,14.27-.09,21.41,0,2.14,1.36,5.07-3.12,5.13-4.28.05-3.38-2.58-3.39-4.91,0-7.14-.14-14.28.06-21.41.07-2.8-.69-3.74-3.57-3.61a150.81,150.81,0,0,1-15.48,0c-3.4-.19-4.61.62-4.44,4.26.32,7,.14,13.94.06,20.91,0,2.05,1.12,4.7-3,4.77-3.94.06-3.2-2.33-3.21-4.54,0-7.14-.14-14.28.06-21.42.08-2.94-.55-4.05-3.79-4q-15.48.33-31,0c-3.35-.07-3.36,1.37-3,3.83,1.72,10.41,11.86,16.38,23.7,13.85a19.73,19.73,0,0,0,2.4-.64c1.79-.63,2.66-.22,3.07,1.82.35,1.83.16,2.69-1.81,3.19-14,3.58-31.4.74-34.19-19.18-.35-2.5-1.17-3-3.35-2.82C78,326.53,76.14,326.41,74.16,326.41Z"/><path class="cls-4" d="M174.88,208.31l31.9,27.86c5,4.37,9.93,8.83,15,13.1,1.69,1.42,2.51,2.81,2.17,5.08q-2.72,17.94-5.21,35.91c-.31,2.22-1.07,2.28-2.91,1.49q-17.84-7.67-35.73-15.14c-1.63-.68-2.1-1.81-2.17-3.47C177,252,176,230.76,174.88,208.31Z"/><path class="cls-5" d="M223.51,293.66c2.54-16.66,4.94-32.17,7.22-47.7.27-1.85,1.38-2.51,2.76-3.1q27.38-11.87,54.75-23.7c1.23,1.39.13,2.53-.24,3.68-4,12.43-8.05,24.85-12,37.29-.46,1.44-.78,2.74-2.27,3.62C257.31,273.47,241,283.25,223.51,293.66Z"/><path class="cls-6" d="M193.49,321.15a101.31,101.31,0,0,0-10.46.07c-3.84.41-5.09-1.23-4.91-4.7.24-4.49.81-8.92,3-12.92a14.14,14.14,0,0,1,24.32-1.28c3.5,5,4,10.73,3.54,16.63-.15,2.14-1.41,2.23-3,2.21C201.8,321.11,197.64,321.15,193.49,321.15Z"/><path class="cls-2" d="M243.13,344.62c-9.53.11-14.44-8.84-15.21-16.65-.19-2,1.29-1.54,2.33-1.54q13,0,25.95,0c1.28,0,2.8-.34,2.49,1.89C257.54,336.47,252.7,344.85,243.13,344.62Z"/><path class="cls-7" d="M243,321.15c-3.81,0-7.63-.12-11.43,0-2.61.11-3.53-.42-2.89-3.33,1.66-7.64,7.56-12.95,14.82-12.88s13.52,6.17,14.72,13.71c.38,2.36-.55,2.48-2.28,2.47C251.6,321.13,247.29,321.15,243,321.15Z"/><path class="cls-6" d="M181,326.63h25.58c-2.85,6.42-7,9.18-13.33,9C187.3,335.49,183.32,332.61,181,326.63Z"/><path class="cls-2" d="M182.76,223c10.45,9.2,20.84,18.47,31.39,27.56,2.76,2.38,4,4.56,3.07,8.45-1.37,5.77-1.81,11.75-2.77,18.49-4.53-7.13-7.15-14.41-10.72-21.19-1.08-2.05-1.89-4.24-3-6.28-1-1.8-1.12-4.64-4.78-3s-1.63,3.61-.74,5.5c4.2,8.82,8.47,17.6,12.71,26.4.49,1,1.34,2,.65,3.23-7.12-3-14.18-6.14-21.35-9-2.53-1-3.39-2.41-3.49-5.14-.54-13.75-1.34-27.48-2.05-41.22C181.63,225.4,180,223.57,182.76,223Z"/><path class="cls-8" d="M182.76,223c-1.72.88-.43,2.6-1.07,3.79a3.61,3.61,0,0,1-.36-4.35C181.66,221.88,182.44,222.34,182.76,223Z"/><path class="cls-2" d="M243.64,273c3.18-4,6.39-7.89,9.54-11.88,1.21-1.52,3.37-2.69.4-5-2.69-2.13-3.52-.73-5,1.12-4,5.07-8.19,10-12.32,15-1,1.24-1.73,2.82-3.85,3.42,1.25-8.44,2.48-16.65,3.67-24.87a4.29,4.29,0,0,1,2.9-3.6c13.12-5.63,26.19-11.35,40.39-17.53-1.89,6-4,11-5,16.16-1.85,9.93-7.28,16.43-16.47,20.48-4.72,2.08-9,5.19-13.46,7.84Z"/><path class="cls-9" d="M193.14,312.75c-1.58-1.46-5.17,1.68-5.27-2.07-.08-3,2.26-5.2,5.57-5.11s5.66,2.41,5.36,5.32C198.46,314.13,195,311.52,193.14,312.75Z"/><path class="cls-10" d="M258.48,249c1.72-1.24,3.14-3.22,4.91-1.38a2.58,2.58,0,0,1-.49,3.6C260.38,253,260.19,249.38,258.48,249Z"/></g></g></svg>