<svg width="394" height="522" viewBox="0 0 394 522" fill="none" xmlns="http://www.w3.org/2000/svg">
<path d="M197.11 393.249C203.999 393.068 220.713 395.968 232.46 409.021C244.208 422.073 213.788 485.523 197.11 515.616" stroke="#9D9D9D" stroke-width="7" stroke-linecap="round"/>
<path d="M197.109 393.249C190.22 393.068 173.506 395.968 161.758 409.021C150.011 422.073 180.431 485.523 197.109 515.616" stroke="#9D9D9D" stroke-width="7" stroke-linecap="round"/>
<path d="M231.157 407.671C236.157 412.414 245.925 426.284 245.002 443.82C244.079 461.356 177.703 484.711 144.631 494.197" stroke="#9D9D9D" stroke-width="7" stroke-linecap="round"/>
<path d="M231.157 407.671C226.414 402.672 212.544 392.904 195.008 393.827C177.472 394.75 154.117 461.125 144.631 494.197" stroke="#9D9D9D" stroke-width="7" stroke-linecap="round"/>
<path d="M162.04 407.671C166.783 402.672 180.653 392.904 198.189 393.827C215.725 394.75 239.081 461.125 248.567 494.197" stroke="#9D9D9D" stroke-width="7" stroke-linecap="round"/>
<path d="M162.038 407.671C157.039 412.414 147.271 426.284 148.194 443.82C149.117 461.356 215.492 484.711 248.564 494.197" stroke="#9D9D9D" stroke-width="7" stroke-linecap="round"/>
<path d="M96.1426 325.354C96.1426 330.049 99.9482 333.854 104.643 333.854H167.525C172.219 333.854 176.025 330.049 176.025 325.354V314.078C176.025 309.383 172.219 305.578 167.525 305.578H131.768C130.94 305.578 130.268 304.906 130.268 304.078V240.492C130.268 235.797 126.462 231.992 121.768 231.992H104.643C99.9482 231.992 96.1426 235.797 96.1426 240.492V325.354Z" stroke="#9D9D9D" stroke-width="7"/>
<path d="M272.045 274.04C272.045 269.346 268.239 265.54 263.545 265.54L200.663 265.54C195.968 265.54 192.163 269.346 192.163 274.04L192.163 285.317C192.163 290.011 195.968 293.817 200.663 293.817L236.42 293.817C237.248 293.817 237.92 294.488 237.92 295.317L237.92 358.903C237.92 363.597 241.725 367.403 246.42 367.403L263.545 367.403C268.239 367.403 272.045 363.597 272.045 358.903L272.045 274.04Z" stroke="#9D9D9D" stroke-width="7"/>
<path d="M181.752 325.354C181.752 330.049 185.558 333.854 190.252 333.854H253.134C257.829 333.854 261.634 330.049 261.634 325.354V314.078C261.634 309.383 257.829 305.578 253.134 305.578H217.377C216.549 305.578 215.877 304.906 215.877 304.078V240.492C215.877 235.797 212.072 231.992 207.377 231.992H190.252C185.558 231.992 181.752 235.797 181.752 240.492V325.354Z" stroke="#9D9D9D" stroke-width="7"/>
<path d="M54.4961 326.511C54.4961 331.205 58.3017 335.011 62.9961 335.011H125.878C130.573 335.011 134.378 331.205 134.378 326.511V315.235C134.378 310.54 130.573 306.735 125.878 306.735H90.1215C89.293 306.735 88.6215 306.063 88.6215 305.235V241.648C88.6215 236.954 84.8159 233.148 80.1215 233.148H62.9961C58.3017 233.148 54.4961 236.954 54.4961 241.648V326.511Z" stroke="#9D9D9D" stroke-width="7"/>
<path d="M176.025 240.492C176.025 235.797 172.22 231.992 167.525 231.992L104.643 231.992C99.9487 231.992 96.1431 235.797 96.1431 240.492L96.1431 251.768C96.1431 256.462 99.9487 260.268 104.643 260.268L140.4 260.268C141.228 260.268 141.9 260.94 141.9 261.768L141.9 325.354C141.9 330.049 145.706 333.854 150.4 333.854L167.525 333.854C172.22 333.854 176.025 330.049 176.025 325.354L176.025 240.492Z" stroke="#9D9D9D" stroke-width="7"/>
<path d="M260.416 325.354C260.416 330.049 264.222 333.854 268.916 333.854H331.798C336.493 333.854 340.298 330.049 340.298 325.354V314.078C340.298 309.383 336.493 305.578 331.798 305.578H296.041C295.213 305.578 294.541 304.906 294.541 304.078V240.492C294.541 235.797 290.736 231.992 286.041 231.992H268.916C264.222 231.992 260.416 235.797 260.416 240.492V325.354Z" stroke="#9D9D9D" stroke-width="7"/>
<path d="M340.299 240.492C340.299 235.797 336.493 231.992 331.799 231.992L268.917 231.992C264.222 231.992 260.417 235.797 260.417 240.492L260.417 251.768C260.417 256.462 264.222 260.268 268.917 260.268L304.673 260.268C305.502 260.268 306.173 260.94 306.173 261.768L306.173 325.354C306.173 330.049 309.979 333.854 314.673 333.854L331.799 333.854C336.493 333.854 340.299 330.049 340.299 325.354L340.299 240.492Z" stroke="#9D9D9D" stroke-width="7"/>
<path d="M298.498 157.914C299.956 164.649 300.211 181.612 289.568 195.579C278.924 209.546 210.929 191.442 178.261 180.644" stroke="#9D9D9D" stroke-width="7" stroke-linecap="round"/>
<path d="M298.499 157.913C297.398 151.111 291.443 135.226 276.436 126.108C261.428 116.989 204.734 158.665 178.262 180.643" stroke="#9D9D9D" stroke-width="7" stroke-linecap="round"/>
<path d="M273.457 162.648C274.611 167.981 274.812 181.41 266.386 192.468C257.96 203.526 204.127 189.193 178.264 180.644" stroke="#9D9D9D" stroke-width="7" stroke-linecap="round"/>
<path d="M273.458 162.648C272.586 157.262 267.871 144.686 255.99 137.467C244.109 130.248 199.223 163.243 178.265 180.643" stroke="#9D9D9D" stroke-width="7" stroke-linecap="round"/>
<path d="M235.407 180.489C235.833 182.456 235.907 187.408 232.8 191.486C229.692 195.563 209.841 190.278 200.303 187.125" stroke="#9D9D9D" stroke-width="7" stroke-linecap="round"/>
<path d="M235.406 180.489C235.084 178.503 233.345 173.865 228.964 171.203C224.583 168.541 208.03 180.708 200.302 187.125" stroke="#9D9D9D" stroke-width="7" stroke-linecap="round"/>
<path d="M94.9648 164.868C93.9614 169.504 93.7861 181.179 101.112 190.793C108.438 200.407 155.24 187.945 177.725 180.513" stroke="#9D9D9D" stroke-width="7" stroke-linecap="round"/>
<path d="M94.9653 164.867C95.7235 160.185 99.8222 149.251 110.152 142.975C120.482 136.699 159.505 165.385 177.726 180.512" stroke="#9D9D9D" stroke-width="7" stroke-linecap="round"/>
<path d="M125.787 179.579C125.397 181.381 125.329 185.919 128.177 189.656C131.025 193.393 149.218 188.549 157.958 185.66" stroke="#9D9D9D" stroke-width="7" stroke-linecap="round"/>
<path d="M125.785 179.578C126.08 177.758 127.673 173.508 131.689 171.069C135.704 168.629 150.873 179.78 157.956 185.66" stroke="#9D9D9D" stroke-width="7" stroke-linecap="round"/>
<path d="M195.675 4.00002C184.574 18.2213 167.387 42.9341 160.596 60.6056" stroke="#9D9D9D" stroke-width="7" stroke-linecap="round"/>
<path d="M195.673 4.00002C206.773 18.2213 223.961 42.9342 230.752 60.6057" stroke="#9D9D9D" stroke-width="7" stroke-linecap="round"/>
<path d="M367.801 116.626C354.906 118.054 335.856 121.045 319.904 125.43" stroke="#9D9D9D" stroke-width="7" stroke-linecap="round"/>
<path d="M367.801 116.626C365.774 134.924 360.601 165.617 352.763 182.266" stroke="#9D9D9D" stroke-width="7" stroke-linecap="round"/>
<path d="M25.6272 115.257C27.9448 134.269 33.7618 166.516 42.2264 183.11" stroke="#9D9D9D" stroke-width="7" stroke-linecap="round"/>
<path d="M25.6279 115.256C38.8807 116.872 58.5646 120.188 74.8945 124.916" stroke="#9D9D9D" stroke-width="7" stroke-linecap="round"/>
<path d="M294.906 390.825H101.581C56.113 390.825 19.2539 353.966 19.2539 308.498V248.34C19.2539 234.409 22.7892 220.705 29.5289 208.513L87.2609 104.07C101.755 77.8483 129.351 61.5711 159.313 61.5711H234.674C264.186 61.5711 291.44 77.3676 306.11 102.975L366.342 208.118C373.479 220.576 377.233 234.683 377.233 249.04V308.498C377.233 353.966 340.374 390.825 294.906 390.825Z" stroke="#9D9D9D" stroke-width="7"/>
</svg>
