<svg xmlns="http://www.w3.org/2000/svg" viewBox="0 0 120.09 88.65"><defs><style>.cls-1{fill:#fff;}</style></defs><g id="Слой_2" data-name="Слой 2"><g id="Слой_1-2" data-name="Слой 1"><path class="cls-1" d="M71.09,62.46a11.67,11.67,0,0,1-8,3.46,8.94,8.94,0,0,1-7.35-2.72c-2.31-2.51-2.26-6.11.15-9a11.49,11.49,0,0,1,9-4.09h1.16c-.05-8.52-.09-17-.13-25.61l-3.45,1.2q-12.58,4.51-25.16,9a1.05,1.05,0,0,0-.84,1.18q.12,16.76.19,33.53c0,3.22-1.76,5.46-4.35,7A27.12,27.12,0,0,1,28,78.18l-.43.16h-3A24.4,24.4,0,0,1,22,77.58c-4.75-2-6-7-2.72-10.92a11.46,11.46,0,0,1,9.19-4.09h.87l.2,0v-1c-.05-10.94,0-21.88-.19-32.81a9.33,9.33,0,0,1,6.31-8.92C45.44,16.59,55.21,13.2,65,9.89c4.38-1.48,8.16,1.21,8.19,5.85.08,13.21.09,26.43.23,39.65C73.45,58.08,73.06,60.49,71.09,62.46Z"/><path class="cls-1" d="M88.65,88.65H24.86A24.89,24.89,0,0,1,0,63.79V24.86A24.89,24.89,0,0,1,24.86,0H88.65ZM24.86,3.79A21.09,21.09,0,0,0,3.79,24.86V63.79A21.1,21.1,0,0,0,24.86,84.87h60V3.79Z"/><path class="cls-1" d="M103,82.54a.37.37,0,0,1-.36-.37v-3a.37.37,0,0,1,.36-.37h5a.38.38,0,0,1,.38.37v3a.38.38,0,0,1-.38.37Zm-2,4.37h8.88a1.88,1.88,0,0,0,1.88-1.85V76.28a1.87,1.87,0,0,0-1.88-1.85H101a1.87,1.87,0,0,0-1.88,1.85v8.78A1.88,1.88,0,0,0,101,86.91Z"/><path class="cls-1" d="M111.75,60.36V56H99.11v1.93a4.94,4.94,0,0,0,1.59,3.59L103.91,64V64l-4.8,3.87v5.35L102.58,72h9.17V67.64h-7.26v-.07L109,64V64l-4.48-3.53v-.08Z"/><path class="cls-1" d="M102.59,53.32h9.16V42.23l-2.35.83a1.13,1.13,0,0,0-.81,1.09V49h-1.9V45.53a1,1,0,0,0-.56-1L104,43.8V49h-1.73V44.06a1,1,0,0,0-.58-.91l-2.58-.92V54.57Z"/><path class="cls-1" d="M108.54,36h-6.2V33a.78.78,0,0,1,.78-.79h4.62a.81.81,0,0,1,.8.79Zm-9.43,5.62,3.48-1.25h9.16V30.53a2.63,2.63,0,0,0-2.51-2.66H101.8a2.8,2.8,0,0,0-2.69,2.66Z"/><polygon class="cls-1" points="99.11 26.45 102.59 25.21 111.75 25.21 111.75 20.84 99.11 20.84 99.11 26.45"/><path class="cls-1" d="M102.34,13.14V12l4.82-1V14.1ZM111.75,15l-1.86-.38V10.46l1.86-.37V5.63L99.11,8.16V18.65l3.48-1.25,9.16,1.84Z"/><path class="cls-1" d="M94.58,5.39,97.84,4.2h8.71v-4h-12ZM107.65,4.2h4.1v-4h-4.1Z"/><path class="cls-1" d="M120,82v1.11h-2.84l2.07,1.26v.13l-2.07,1.26H120v1.11h-4.88V85.74l2.17-1.32-2.17-1.33V82Z"/><path class="cls-1" d="M115.11,73.89l3.44,1.41a2,2,0,0,1,1.44,2h-1a.9.9,0,0,0-.48-1l-3.35,1.56V76.82l2.13-.95L115.11,75Z"/><path class="cls-1" d="M118.61,66.86c.91,0,1.48.78,1.48,1.8a1.82,1.82,0,0,1-1.16,1.85l-.55-1a.86.86,0,0,0,.66-.89c0-.47-.2-.69-.52-.69s-.51.23-.51.7v.62h-1v-.48c0-.44-.18-.66-.48-.66s-.48.16-.48.56a.79.79,0,0,0,.56.77l-.55,1A1.81,1.81,0,0,1,115,68.71,1.49,1.49,0,0,1,116.46,67a1.23,1.23,0,0,1,1,.49A1.25,1.25,0,0,1,118.61,66.86Z"/><path class="cls-1" d="M115.11,58.84V57.73H120v1.11Zm0,4V61.7h1.53V61A1.68,1.68,0,1,1,120,61v1.84ZM118.94,61a.63.63,0,0,0-1.25,0v.73h1.25Z"/><path class="cls-1" d="M120,50.73l-2.26,1.56H120v1.12h-4.88V52.29h2.12l-2.12-1.49V49.53l2.38,1.65,2.5-1.72Z"/><path class="cls-1" d="M119.22,42.57v1.81l.77.24v1.22l-4.88-1.66V42.76L120,41.1v1.22Zm-1,.33-1.79.57,1.79.57Z"/></g></g></svg>