<svg xmlns="http://www.w3.org/2000/svg" viewBox="0 0 121.78 37.95"><defs><style>.cls-1,.cls-2{fill:#fff;}.cls-1{fill-rule:evenodd;}</style></defs><g id="Слой_2" data-name="Слой 2"><g id="Слой_1-2" data-name="Слой 1"><path class="cls-1" d="M6.13,13.11a.53.53,0,0,1,.53-.53h4.21a.52.52,0,0,1,.52.53v7.36a.54.54,0,0,1-.52.56H6.66a.55.55,0,0,1-.53-.56ZM0,10.19v13.2a2.72,2.72,0,0,0,2.6,2.79H14.92a2.72,2.72,0,0,0,2.61-2.79V10.19A2.72,2.72,0,0,0,14.92,7.4H2.6A2.72,2.72,0,0,0,0,10.19Z"/><path class="cls-1" d="M37.27,26.18H43.4V7.4H40.7a6.81,6.81,0,0,0-5,2.36l-3.45,4.78h-.1L26.67,7.4H19.16l1.76,5.15V26.18h6.13V15.4h.1l5,6.65h.1l5-6.65h.1Z"/><path class="cls-1" d="M47.15,12.58v13.6H62.73l-1.18-3.49A1.58,1.58,0,0,0,60,21.49H53.29V18.67H58.1a1.35,1.35,0,0,0,1.35-.83l1.07-3.17H53.29V12.1h6.86a1.4,1.4,0,0,0,1.28-.86l1.3-3.84H45.4Z"/><path class="cls-1" d="M71.48,21.41V12.2h4.16a1.13,1.13,0,0,1,1.1,1.16v6.87a1.15,1.15,0,0,1-1.1,1.18Zm-7.89-14,1.76,5.18v13.6H79.14a3.79,3.79,0,0,0,3.73-3.73v-11c0-1.48-1.27-4-3.73-4Z"/><polygon class="cls-1" points="84.87 7.4 86.62 12.58 86.62 26.18 92.75 26.18 92.75 7.4 84.87 7.4"/><path class="cls-1" d="M103.56,12.2h1.63l1.35,7.17h-4.33Zm-2.66,14,.53-2.76h5.89l.52,2.76h6.26L110.54,7.4H95.82l1.75,5.18L95,26.18Z"/><path class="cls-1" d="M114.44.67l1.66,4.84V18.45h5.68V.67Zm1.66,19.42v6.09h5.68V20.09Z"/><path class="cls-1" d="M.17,30c.14.46.25.83.65,1v4.89H2.1V32.63h.12c0,.22.3.72.53.72H5.48v2.51H6.76V30H5.48v2.45H2.1V30Z"/><path class="cls-1" d="M9.91,35a.4.4,0,0,1-.45-.37V33.51a.42.42,0,0,1,.45-.37h2.94V35ZM8.56,30.56c.07.18.26.41.47.41h3.11a.64.64,0,0,1,.71.69v.66H9.54c-.69,0-1.35.34-1.35,1v1.5c0,.76.72,1,1.27,1H12c.39,0,.64-.4.76-.64h.09v.64h1.27V31.25A1.3,1.3,0,0,0,12.84,30H8.37Z"/><path class="cls-1" d="M20.26,32.5c.23-.07.49-.26.49-.49V30H17.17c-.81,0-1.62.41-1.62,1.29v3.13A1.33,1.33,0,0,0,17,35.86h3.19c.4,0,.52-.66.64-1H17.43a.63.63,0,0,1-.61-.64V31.6a.62.62,0,0,1,.61-.63h2.21v1.75Z"/><path class="cls-1" d="M21.59,30c.12.35.29,1,.55,1H24v4.89h1.29V31h2.28V30Z"/><path class="cls-1" d="M29.91,31.45a.57.57,0,0,1,.55-.59h2.32a.58.58,0,0,1,.55.59v2.92a.56.56,0,0,1-.54.59H30.47a.57.57,0,0,1-.56-.59Zm-1.28-.27v3.46a1.23,1.23,0,0,0,1.21,1.22h3.53a1.22,1.22,0,0,0,1.21-1.22V31.18A1.22,1.22,0,0,0,33.37,30H29.84A1.22,1.22,0,0,0,28.63,31.18Z"/><path class="cls-1" d="M37.07,31.17c0-.17.07-.31.21-.31h2.95V33.1H37.55a.26.26,0,0,1-.29-.23ZM41.5,30H36.26c-.33,0-.56.35-.51.78l.31,2.34a.82.82,0,0,0,.69.78h.8v0a.91.91,0,0,0-.46.33L35.56,36h1a1.07,1.07,0,0,0,.74-.3l1.54-1.72h.75c.37,0,.49-.42.54-.67h.08v2.59H41.5Z"/><path class="cls-1" d="M51.44,38c.36-.08,1.21-.26,1.21-.75V34.85h-.88V30H50.49v4.89H48.05V30H46.77v4.89H44.31V30H42.39c.1.39.26,1,.66,1v4.89h8.39Z"/><path class="cls-1" d="M59.18,30c-.4,0-1.11.73-1.47,1.12l-2.84,3V30H52.94c.15.46.25.83.65,1v4.89H54c.51,0,1.14-.65,1.58-1.12l2.84-3v4.12h1.28V30Z"/><path class="cls-1" d="M62.38,32.61V31.46a.62.62,0,0,1,.6-.6h2.2a.61.61,0,0,1,.59.6v1.15Zm0,3.25h3.87c.41,0,.53-.57.65-.9H63a.6.6,0,0,1-.6-.6V32.81h.07c.06.16.21.64.53.64H67v-2A1.33,1.33,0,0,0,65.58,30h-3a1.33,1.33,0,0,0-1.46,1.47v2.94A1.34,1.34,0,0,0,62.39,35.86Z"/><path class="cls-2" d="M2.47.87v.64H1.35V4.07H.65V.87Z"/><path class="cls-2" d="M8.74.87a1.12,1.12,0,0,1,.81.31A1,1,0,0,1,9.87,2a1,1,0,0,1-.32.78,1.13,1.13,0,0,1-.81.32H8.21v1h-.7V.87Zm0,1.56a.49.49,0,0,0,.34-.13A.48.48,0,0,0,9.17,2a.48.48,0,0,0-.12-.33.45.45,0,0,0-.34-.13h-.5v.92Z"/><path class="cls-2" d="M16.67.87h.72L16.49,3a1.94,1.94,0,0,1-.54.82,1.35,1.35,0,0,1-.82.23H15V3.43h.2a.75.75,0,0,0,.33-.06.51.51,0,0,0,.21-.24L14.55.87h.78l.76,1.46Z"/><path class="cls-2" d="M22.34.87h2.49v3.2h-.69V1.51H23V4.07h-.69Z"/><path class="cls-2" d="M30.13.87h2.49v3.2h-.69V1.51h-1.1V4.07h-.7Z"/><path class="cls-2" d="M40.05,4.07l-.22-.61H38.55l-.22.61H37.6L38.86.87h.65l1.29,3.2Zm-.86-2.36-.42,1.15h.84Z"/><path class="cls-2" d="M54,4.07h-.85L52,2.5V4.07h-.69V.87H52V2.34L53.06.87h.81L52.77,2.4Z"/><path class="cls-2" d="M60.22,4.14A1.65,1.65,0,0,1,59,3.66a1.59,1.59,0,0,1-.49-1.19A1.58,1.58,0,0,1,59,1.28,1.65,1.65,0,0,1,60.22.8,1.74,1.74,0,0,1,61.1,1a1.53,1.53,0,0,1,.61.6,1.71,1.71,0,0,1,.22.85,1.61,1.61,0,0,1-.49,1.19A1.66,1.66,0,0,1,60.22,4.14Zm0-.66a1,1,0,0,0,.52-.13A1,1,0,0,0,61.1,3a1.14,1.14,0,0,0,.13-.52,1,1,0,0,0-.29-.73,1,1,0,0,0-1.43,0,1,1,0,0,0-.29.73,1,1,0,0,0,.29.72A.94.94,0,0,0,60.22,3.48Z"/><path class="cls-2" d="M70.93,4.07h-.7L69.91,2,69,4.06h-.17L67.83,2l-.31,2.09h-.71l.5-3.2H68l.87,2,.87-2h.69Z"/><path class="cls-2" d="M76,.87h2.49v3.2h-.69V1.51H76.73V4.07H76Z"/><path class="cls-2" d="M86,4.07l-.23-.61H84.46l-.22.61h-.73L84.76.87h.65l1.3,3.2Zm-.87-2.36-.41,1.15h.83Z"/><path class="cls-2" d="M93.58.87h.69v3.2h-.69V2.75h-1.2V4.07h-.7V.87h.7V2.1h1.2Z"/><path class="cls-2" d="M101.73.87h.5v3.2h-.69V2.14l-1.48,1.93h-.48V.87h.69v1.9Z"/><path class="cls-2" d="M109.69.87h.5v3.2h-.69V2.14L108,4.07h-.48V.87h.69v1.9ZM108.15.52V0h1.38V.52Z"/></g></g></svg>