<svg width="499" height="82" viewBox="0 0 499 82" fill="none" xmlns="http://www.w3.org/2000/svg">
<path d="M53.5 80C29.6601 56.8129 19.2808 37.9905 2 2H497.5C486.576 38.4188 478.144 56.1554 452.5 75.5C436.824 67.618 428.609 61.3571 415.5 47C413.304 51.6572 410.399 53.9195 403 57.5C388.206 56.2307 380.749 53.4302 368 47C357.215 57.8764 351.799 60.331 342.5 62.5C334.317 54.7019 327.501 52.6551 313 51.5C312.297 66.2648 295.788 62.5091 277 62.5C261.128 61.5498 257.5 62.5 254 51.5C254 57.5 256.5 66 228.5 69C200.5 72 208.083 58.3342 195 51.5C181.48 51.8015 173.959 52.8258 161 62.5C146.079 58.695 138.37 55.6545 127 47C116.533 47.1409 109.974 49.0689 96.5 57.5C89.809 56.8349 87.1346 53.4527 82.5 47C73.6498 66.9799 66.5265 71.9869 53.5 80Z" fill="white"/>
<path d="M2 2C19.2808 37.9905 29.6601 56.8129 53.5 80C66.5265 71.9869 73.6498 66.9799 82.5 47C87.1346 53.4527 89.809 56.8349 96.5 57.5C109.974 49.0689 116.533 47.1409 127 47C138.37 55.6545 146.079 58.695 161 62.5C173.959 52.8258 181.48 51.8015 195 51.5C208.083 58.3342 200.5 72 228.5 69C256.5 66 254 57.5 254 51.5C257.5 62.5 261.128 61.5498 277 62.5C295.788 62.5091 312.297 66.2648 313 51.5C327.501 52.6551 334.317 54.7019 342.5 62.5C351.799 60.331 357.215 57.8764 368 47C380.749 53.4302 388.206 56.2307 403 57.5C410.399 53.9195 413.304 51.6572 415.5 47C428.609 61.3571 436.824 67.618 452.5 75.5C478.144 56.1554 486.576 38.4188 497.5 2" stroke="#454545" stroke-width="3" stroke-linecap="round"/>
<path d="M313 53L312.5 43.5" stroke="#454545" stroke-width="3"/>
<path d="M82.5 47.5V37M127.5 47.5V39M195.5 51.5V42.5" stroke="#454545" stroke-width="3"/>
<path d="M254.5 54.5L253 44" stroke="#454545" stroke-width="3"/>
<path d="M368 47.5V40.5M415.5 47.5V39" stroke="#454545" stroke-width="3"/>
</svg>
