<svg xmlns="http://www.w3.org/2000/svg" xmlns:xlink="http://www.w3.org/1999/xlink" viewBox="0 0 103.08 103.08"><defs><style>.cls-1{fill:url(#Безымянный_градиент_5);}.cls-2{fill:#fff;}</style><linearGradient id="Безымянный_градиент_5" y1="51.54" x2="103.08" y2="51.54" gradientUnits="userSpaceOnUse"><stop offset="0" stop-color="#6d305b"/><stop offset="0.06" stop-color="#642d56"/><stop offset="0.35" stop-color="#3c1e42"/><stop offset="0.61" stop-color="#1f1433"/><stop offset="0.83" stop-color="#0d0d2a"/><stop offset="1" stop-color="#070b27"/></linearGradient></defs><g id="Слой_2" data-name="Слой 2"><g id="Слой_1-2" data-name="Слой 1"><path class="cls-1" d="M29.49,0h73.59a0,0,0,0,1,0,0V103.08a0,0,0,0,1,0,0H29.49A29.49,29.49,0,0,1,0,73.59V29.49A29.49,29.49,0,0,1,29.49,0Z"/><path class="cls-2" d="M78.3,69.67a11.63,11.63,0,0,1-8,3.46A8.91,8.91,0,0,1,63,70.41c-2.31-2.51-2.25-6.11.15-9a11.48,11.48,0,0,1,9-4.08h1.16c0-8.52-.08-17-.13-25.61-1.17.41-2.31.8-3.45,1.21q-12.57,4.52-25.16,9a1,1,0,0,0-.83,1.18q.12,16.77.18,33.53c0,3.22-1.75,5.46-4.35,7a25.9,25.9,0,0,1-4.4,1.71l-.43.16h-3c-.85-.25-1.74-.43-2.56-.76-4.74-2-6-7-2.71-10.93a11.4,11.4,0,0,1,9.18-4.08c.29,0,.58,0,.87,0l.2-.05v-1c-.06-10.94,0-21.87-.2-32.81A9.34,9.34,0,0,1,42.83,27c9.82-3.24,19.59-6.63,29.38-9.94,4.39-1.48,8.17,1.22,8.19,5.85.08,13.22.1,26.43.23,39.65C80.66,65.29,80.27,67.7,78.3,69.67Z"/><path class="cls-2" d="M95.86,95.86H32.07A24.89,24.89,0,0,1,7.21,71V32.07A24.89,24.89,0,0,1,32.07,7.21H95.86ZM32.07,11A21.09,21.09,0,0,0,11,32.07V71A21.1,21.1,0,0,0,32.07,92.08h60V11Z"/></g></g></svg>